<svg width="14" height="13" viewBox="0 0 14 13" fill="none" xmlns="http://www.w3.org/2000/svg">
<path fill-rule="evenodd" clip-rule="evenodd" d="M10.9618 0H2.53667C1.25932 0 0.226562 1.05556 0.226562 2.36111V10.6389C0.226562 11.9444 1.25932 13 2.53667 13H10.9618C12.2391 13 13.2719 11.9444 13.2719 10.6389V2.36111C13.2719 1.05556 12.2391 0 10.9618 0ZM2.94433 9.26599V3.6411C2.94433 3.60284 2.96064 3.58097 2.99869 3.58097C3.09109 3.58097 3.17806 3.58097 3.30308 3.57551C3.37026 3.57269 3.43888 3.57133 3.50969 3.56992C3.57638 3.56859 3.645 3.56722 3.71618 3.56457C3.79209 3.56175 3.8709 3.56038 3.95262 3.55897H3.95263H3.95263H3.95263C4.02891 3.55764 4.10772 3.55628 4.18907 3.55364C4.35757 3.54817 4.52064 3.54817 4.6837 3.54817C5.12942 3.54817 5.49904 3.60284 5.80343 3.71763C6.0752 3.81056 6.32524 3.96362 6.53179 4.16587C6.70573 4.3408 6.84161 4.55398 6.92858 4.78904C7.01012 5.01863 7.0536 5.25368 7.0536 5.49967C7.0536 5.96977 6.94489 6.35788 6.72747 6.664C6.51005 6.97012 6.20566 7.1997 5.85235 7.3309C5.48273 7.46756 5.07506 7.51675 4.62935 7.51675C4.4989 7.51675 4.41193 7.51675 4.35757 7.51129C4.30322 7.50582 4.22711 7.50582 4.12384 7.50582V9.26052C4.12928 9.29879 4.1021 9.33158 4.06405 9.33705H3.00956C2.96607 9.33705 2.94433 9.31519 2.94433 9.26599ZM4.12928 4.63598V6.47268L4.14559 6.47385C4.2155 6.4789 4.28072 6.48361 4.34127 6.48361H4.62935C4.84134 6.48361 5.05332 6.45081 5.25444 6.38522C5.42837 6.33602 5.58057 6.23216 5.70015 6.0955C5.8143 5.95884 5.86865 5.77298 5.86865 5.53246C5.87409 5.36301 5.8306 5.19355 5.74364 5.04596C5.65123 4.90383 5.52078 4.7945 5.36315 4.73437C5.16203 4.65238 4.94461 4.61958 4.72175 4.62505C4.58043 4.62505 4.45541 4.62505 4.35214 4.63051C4.24343 4.62505 4.16733 4.63051 4.12928 4.63598ZM9.92356 5.95337C10.1084 5.99164 10.2823 6.05177 10.4454 6.13923C10.4671 6.15016 10.4943 6.15016 10.5432 6.13923C10.5595 6.1283 10.5704 6.10643 10.5704 6.08457V5.19355C10.5704 5.17169 10.565 5.14982 10.5595 5.12796L10.5595 5.12795C10.5487 5.10609 10.5269 5.08422 10.5052 5.07876C10.3584 5.01863 10.2008 4.97489 10.0377 4.95303C9.81485 4.92023 9.58656 4.90383 9.3637 4.90383C8.97778 4.90383 8.65708 4.96396 8.40161 5.09515C8.16789 5.20448 7.96677 5.37941 7.83088 5.59806C7.7113 5.80032 7.64607 6.02444 7.64607 6.25949C7.64064 6.45081 7.68412 6.64213 7.77109 6.81706C7.87437 7.00291 8.01569 7.16144 8.18419 7.2817C8.42336 7.44569 8.67883 7.57688 8.95604 7.67528C9.22238 7.77914 9.40175 7.86113 9.48872 7.9322C9.57569 8.00326 9.61917 8.07432 9.61917 8.15085C9.61917 8.24924 9.55938 8.34217 9.47241 8.38044C9.37457 8.42964 9.22782 8.45697 9.02127 8.45697C8.80384 8.45697 8.58642 8.42964 8.37987 8.37497C8.14071 8.32031 7.91785 8.23285 7.70586 8.10712C7.68956 8.09619 7.67325 8.09072 7.65694 8.10165C7.64064 8.11259 7.6352 8.13445 7.6352 8.15085V9.102C7.62977 9.14573 7.65694 9.18399 7.69499 9.20586C7.86893 9.28785 8.05917 9.34798 8.24942 9.38078C8.49402 9.42998 8.73862 9.45184 8.98865 9.45184C9.38001 9.45184 9.70614 9.39171 9.97248 9.27692C10.2171 9.17853 10.4291 9.00907 10.5813 8.79041C10.7226 8.57723 10.7987 8.32031 10.7933 8.06339C10.7987 7.8666 10.7552 7.67528 10.6682 7.50035C10.565 7.3145 10.4182 7.16144 10.2388 7.04665C9.97792 6.88265 9.69527 6.746 9.40175 6.6476C9.2713 6.59294 9.14085 6.53281 9.01583 6.46721C8.94517 6.42895 8.87994 6.37975 8.83102 6.31962C8.79841 6.27589 8.77667 6.22669 8.77667 6.17749C8.77667 6.1283 8.79297 6.07363 8.82015 6.0299C8.8582 5.97524 8.91799 5.93697 8.98865 5.92058C9.09193 5.89324 9.20607 5.87684 9.31478 5.88231C9.52133 5.88231 9.72245 5.90964 9.92356 5.95337Z" fill="white"/>
</svg>
