<svg width="14" height="13" viewBox="0 0 14 13" fill="none" xmlns="http://www.w3.org/2000/svg">
<path fill-rule="evenodd" clip-rule="evenodd" d="M11.0179 0H2.59282C1.31547 0 0.282715 1.05556 0.282715 2.36111V10.6389C0.282715 11.9444 1.31547 13 2.59282 13H11.0179C12.2953 13 13.328 11.9444 13.328 10.6389V2.36111C13.328 1.05556 12.2953 0 11.0179 0ZM9.88744 4.86792C9.70672 4.8731 9.53149 4.80575 9.40006 4.68658C9.27411 4.55705 9.2084 4.38607 9.21388 4.20991C9.2084 4.03375 9.27959 3.86796 9.41101 3.74879C9.54244 3.62962 9.71768 3.56745 9.89839 3.56745C10.112 3.56745 10.2762 3.62962 10.3967 3.74879C10.5172 3.87314 10.5829 4.03893 10.5774 4.20991C10.5829 4.38607 10.5172 4.55705 10.3858 4.68658C10.2598 4.81093 10.0736 4.87828 9.88744 4.86792ZM9.27411 9.36517V5.37567C9.27411 5.32386 9.29602 5.30314 9.3453 5.30314H10.4296C10.4789 5.30314 10.5008 5.32904 10.5008 5.37567V9.36517C10.5008 9.42216 10.4789 9.44806 10.4296 9.44806H9.35625C9.30149 9.44806 9.27411 9.41698 9.27411 9.36517ZM6.95772 8.15277H4.92061L4.50443 9.37035C4.49347 9.41698 4.44967 9.44806 4.40038 9.44288H3.37087C3.31064 9.44288 3.29421 9.4118 3.31064 9.34962L5.07394 4.54669L5.08844 4.50006L5.08845 4.50005C5.10042 4.4612 5.11318 4.41976 5.1287 4.37571C5.15061 4.26691 5.16156 4.15292 5.16156 4.03893C5.15608 4.01303 5.17799 3.98712 5.20537 3.98194H6.62368C6.66749 3.98194 6.68939 3.99749 6.69487 4.02339L8.69365 9.35999C8.71007 9.41698 8.69365 9.44288 8.63888 9.44288H7.49438C7.45605 9.44806 7.41771 9.42216 7.40676 9.38589L6.95772 8.15277ZM5.23822 7.101H6.62915C6.5963 6.9922 6.55249 6.86267 6.5032 6.72796C6.45392 6.58806 6.40463 6.43781 6.35535 6.28238C6.32797 6.20207 6.30196 6.12306 6.27595 6.04404C6.24993 5.96503 6.22392 5.88602 6.19654 5.80571C6.14178 5.64509 6.0925 5.49484 6.04869 5.34459C6.0293 5.2804 6.01099 5.21824 5.99328 5.1581L5.99327 5.15807L5.99324 5.15797C5.97093 5.08225 5.94957 5.00974 5.92821 4.94046H5.91726C5.86798 5.16325 5.80774 5.38604 5.73107 5.60883C5.69978 5.70356 5.6685 5.79979 5.63691 5.89696C5.58556 6.05488 5.53342 6.21526 5.47917 6.37564C5.40251 6.63988 5.32037 6.88339 5.23822 7.101Z" fill="black"/>
</svg>
