<svg width="14" height="13" viewBox="0 0 14 13" fill="none" xmlns="http://www.w3.org/2000/svg">
<path fill-rule="evenodd" clip-rule="evenodd" d="M0.700195 6.5C0.700195 2.91016 3.62049 0 7.22284 0C10.8252 0 13.7455 2.91016 13.7455 6.5C13.7455 10.0898 10.8252 13 7.22284 13C3.62049 13 0.700195 10.0898 0.700195 6.5ZM5.91831 10.4C6.63879 10.4 7.22284 9.81797 7.22284 9.1V7.8H5.91831C5.19784 7.8 4.61378 8.38203 4.61378 9.1C4.61378 9.81797 5.19784 10.4 5.91831 10.4ZM4.61378 6.5C4.61378 7.21797 5.19784 7.8 5.91831 7.8H7.22284V5.2H5.91831C5.19784 5.2 4.61378 5.78203 4.61378 6.5ZM4.61378 3.9C4.61378 4.61797 5.19784 5.2 5.91831 5.2H7.22284V2.6H5.91831C5.19784 2.6 4.61378 3.18203 4.61378 3.9ZM7.22284 2.6V5.2H8.52737C9.24784 5.2 9.8319 4.61797 9.8319 3.9C9.8319 3.18203 9.24784 2.6 8.52737 2.6H7.22284ZM9.8319 6.5C9.8319 5.78203 9.24784 5.2 8.52737 5.2C7.8069 5.2 7.22284 5.78203 7.22284 6.5C7.22284 7.21797 7.8069 7.8 8.52737 7.8C9.24784 7.8 9.8319 7.21797 9.8319 6.5Z" fill="black"/>
</svg>
