<svg width="14" height="13" viewBox="0 0 14 13" fill="none" xmlns="http://www.w3.org/2000/svg">
<path fill-rule="evenodd" clip-rule="evenodd" d="M7.66455 7.26924C7.66455 7.98424 8.24615 8.56653 8.96636 8.56653C9.09138 8.56653 9.20825 8.54486 9.32239 8.50965V6.3159V6.02611C9.20825 5.99361 9.09138 5.96924 8.96636 5.96924C8.24615 5.97195 7.66455 6.55153 7.66455 7.26924Z" fill="white"/>
<path fill-rule="evenodd" clip-rule="evenodd" d="M11.6082 0H3.18315C1.9058 0 0.873047 1.05625 0.873047 2.36167V10.6383C0.873047 11.9438 1.9058 13 3.18315 13H11.6082C12.8856 13 13.9183 11.9438 13.9183 10.6383V2.36167C13.9183 1.05625 12.8856 0 11.6082 0ZM5.56935 9.57396H4.34908V3.62375H5.56935V9.57396ZM10.4423 5.53042V6.31583V9.21104C10.0129 9.53604 9.46935 9.73375 8.87688 9.73375C7.49625 9.73375 6.37653 8.67479 6.37653 7.37208C6.37653 6.06667 7.49625 5.01042 8.87688 5.01042C9.02908 5.01042 9.17855 5.02396 9.32259 5.04833V3.26625H10.4423V5.53042Z" fill="white"/>
</svg>
