<svg width="11" height="11" viewBox="0 0 11 11" fill="none" xmlns="http://www.w3.org/2000/svg">
<g clip-path="url(#clip0)">
<path d="M5.4522 0C2.67008 0 0.414551 2.2477 0.414551 5.02016C0.414551 7.79262 2.67008 10.0403 5.4522 10.0403C8.23433 10.0403 10.4899 7.79282 10.4899 5.02016C10.4899 2.2475 8.23433 0 5.4522 0ZM4.42854 6.09283C5.0118 6.67407 6.0276 6.67407 6.61086 6.09283L7.70203 7.1802C7.11915 7.76144 6.34403 8.08128 5.5197 8.08128C4.69537 8.08128 3.92025 7.76144 3.33737 7.1802C2.75411 6.59935 2.43315 5.82692 2.43315 5.00545C2.43315 4.18399 2.75411 3.41155 3.33737 2.8307C4.50312 1.66822 6.53628 1.66822 7.70203 2.8307L6.61086 3.91808C6.0276 3.33684 5.0118 3.33684 4.42854 3.91808C4.1369 4.2087 3.97633 4.59462 3.97633 5.00545C3.97633 5.41628 4.1369 5.80221 4.42854 6.09283Z" fill="#FF0000"/>
</g>
<defs>
<clipPath id="clip0">
<rect width="10.0753" height="10.0403" fill="white" transform="translate(0.414551)"/>
</clipPath>
</defs>
</svg>
