<svg width="320" height="969" viewBox="0 0 320 969" fill="none" xmlns="http://www.w3.org/2000/svg">
<g clip-path="url(#clip0)">
<path d="M58.7974 537.381C57.9802 536.244 57.5412 535.576 57.0473 534.959C52.285 528.987 47.4783 523.051 42.7656 517.042C41.6045 515.562 40.304 514.428 38.5722 513.696C35.3893 512.353 32.223 510.965 29.0937 509.5C27.5083 508.757 26.0156 508.68 24.3594 509.236C20.0539 510.684 15.7431 512.123 11.3835 513.399C8.43425 514.262 5.39724 514.829 2.40244 515.543C-1.9252 516.575 -6.27266 517.538 -10.5732 518.679C-22.1673 521.749 -33.7422 524.885 -45.3198 528.022C-47.4221 528.593 -49.4756 529.337 -51.5759 529.916C-52.9631 530.298 -54.4137 530.459 -55.8002 530.843C-58.0621 531.474 -60.3095 532.162 -62.5298 532.915C-63.9018 533.38 -65.1914 534.098 -66.57 534.548C-68.5963 535.209 -69.6907 534.676 -70.3396 532.633C-70.7186 531.438 -70.914 530.144 -70.942 528.89C-70.9865 526.845 -71.4834 524.984 -72.2635 523.092C-74.1091 518.602 -75.378 513.999 -74.6262 509.017C-74.4178 507.639 -74.7938 506.139 -75.0878 504.732C-75.4214 503.131 -76.0403 501.593 -76.4003 499.999C-77.0458 497.122 -76.7238 495.986 -74.101 494.567C-71.6499 493.24 -69.0208 492.107 -66.3358 491.38C-56.9493 488.842 -47.5007 486.542 -38.0871 484.101C-28.851 481.704 -19.451 479.774 -10.4533 476.68C-0.175468 473.145 10.3963 471.008 20.8765 468.401C25.1062 467.348 29.3049 466.171 33.5042 465.008C36.1614 464.271 38.5457 463.013 40.7119 461.275C43.2034 459.273 45.5558 459.628 47.5296 462.169C48.8467 463.869 49.7202 465.763 49.6249 467.957C49.3007 475.223 50.8442 482.263 52.2036 489.321C52.4573 490.635 52.9055 492.029 53.6619 493.102C57.0331 497.88 60.7356 502.373 65.7864 505.514C69.7257 507.963 73.6616 510.422 77.6447 512.798C78.9653 513.584 80.3807 514.277 81.8367 514.759C92.5755 518.324 103.566 520.696 114.862 521.549C119.81 521.923 124.646 520.978 129.485 520.197C139.547 518.575 149.46 516.3 159.205 513.301C161.287 512.659 163.428 512.213 165.542 511.676C190.641 505.302 215.746 498.955 240.836 492.544C249.81 490.249 258.829 488.073 267.682 485.369C282.367 480.885 296.923 475.988 311.555 471.337C314.667 470.348 317.875 469.652 321.038 468.825C326.312 467.448 331.572 466.027 336.863 464.719C338.972 464.197 341.147 463.938 343.29 463.557C347.486 462.808 351.785 462.406 355.858 461.232C363.962 458.898 372.195 456.855 379.714 452.816C380.493 452.397 381.417 452.131 382.3 452.041C385.043 451.761 387.188 453.418 387.375 456.181C387.695 460.983 388.379 465.78 387.736 470.622C387.575 471.83 387.843 473.157 388.168 474.36C388.821 476.771 388.973 479.132 388.657 481.64C388.309 484.424 388.446 487.267 388.359 490.084C388.226 494.478 387.33 495.568 383.063 496.731C376.75 498.451 370.436 500.157 364.142 501.946C358.361 503.59 352.502 504.786 346.542 505.587C344.397 505.876 342.337 506.737 340.195 507.107C336.795 507.694 333.366 508.122 329.943 508.548C326.23 509.013 322.584 509.687 319.164 511.303C318.268 511.726 317.281 511.961 316.32 512.239C303.236 516.043 290.15 519.856 277.053 523.622C275.205 524.152 274.056 525.232 273.58 527.073C273.465 527.513 273.313 527.945 273.21 528.387C272.772 530.281 271.634 531.347 269.683 531.666C261.999 532.93 255.001 536.364 247.678 538.765C245.206 539.578 242.841 540.89 240.63 542.29C229.175 549.551 218.379 557.714 208.132 566.595C203.928 570.239 200.244 574.377 197.213 579.081C196.23 580.604 194.996 581.964 193.925 583.432C193.364 584.2 192.907 585.04 192.402 585.849C192.518 586.018 192.633 586.186 192.748 586.355C194.657 585.959 196.612 585.709 198.467 585.14C210.63 581.416 222.77 577.613 234.922 573.86C237.004 573.218 239.112 572.646 241.221 572.104C247.818 570.415 254.431 568.79 261.021 567.074C267.614 565.358 274.233 563.711 280.759 561.761C288.416 559.47 295.969 556.833 303.601 554.453C307.15 553.345 310.786 552.516 314.365 551.496C315.841 551.076 317.265 550.468 318.724 549.978C326.565 547.357 334.326 544.444 342.28 542.231C348.649 540.461 355.255 539.544 361.757 538.255C362.113 538.184 362.481 538.171 362.836 538.103C372.461 536.243 382.08 534.356 391.712 532.523C394.655 531.963 397.63 531.574 400.582 531.062C402.941 530.653 404.623 531.6 405.91 533.518C407.695 536.171 409.263 538.903 410.117 542.041C410.687 544.14 411.723 546.109 412.306 548.205C413.06 550.906 413.558 553.677 414.19 556.411C414.637 558.344 415.007 560.307 415.641 562.176C416.012 563.272 415.973 564.028 415.192 564.881C414.054 566.118 412.767 567.002 411.14 567.505C406.083 569.067 400.917 570.006 395.67 570.619C394.248 570.784 392.883 571.377 391.474 571.708C386.351 572.909 381.24 574.173 376.087 575.232C372.443 575.981 368.672 576.179 365.074 577.08C355.474 579.482 345.886 581.966 336.387 584.743C329.856 586.653 323.523 589.233 317.032 591.29C309.068 593.815 301.032 596.116 293.02 598.492C285.705 600.664 278.416 602.939 271.05 604.929C263.772 606.898 256.44 608.688 249.086 610.34C240.912 612.177 232.961 614.654 225.053 617.415C218.463 619.716 211.651 621.414 204.893 623.211C189.352 627.342 173.759 631.283 158.234 635.475C150.786 637.486 143.462 639.961 136.052 642.112C128.723 644.236 121.355 646.23 113.995 648.253C112.95 648.541 111.856 648.858 110.791 648.841C105.019 648.757 99.8654 651.081 94.568 652.861C93.5429 653.206 92.546 653.89 91.516 653.933C86.4304 654.134 81.8825 656.507 76.9684 657.375C76.446 657.468 75.8852 657.667 75.4725 657.986C73.0281 659.884 70.122 660.604 67.2271 661.414C56.9042 664.304 46.5912 667.233 36.2775 670.148C35.8412 670.27 35.4114 670.431 34.9698 670.532C24.503 672.922 14.4038 676.586 4.07037 679.411C-4.36139 681.717 -12.3843 685.135 -20.7157 687.675C-21.4109 687.887 -22.093 688.164 -22.8002 688.295C-24.9771 688.701 -26.2793 687.978 -27.1367 685.956C-29.4046 680.594 -31.6949 675.243 -33.9118 669.859C-34.357 668.782 -34.6532 667.603 -34.7952 666.444C-35.1435 663.609 -35.9342 660.928 -37.1976 658.371C-37.6 657.556 -37.9428 656.709 -38.2618 655.857C-39.3317 653.015 -38.3659 650.781 -35.5158 649.779C-33.5478 649.087 -31.5157 648.573 -29.5074 647.986C-18.5235 644.769 -7.54566 641.528 3.45009 638.347C17.3262 634.332 31.1977 630.298 45.1048 626.396C71.6987 618.932 98.3361 611.632 124.911 604.102C135.659 601.057 132.547 602.918 140.055 594.898C147.139 587.333 154.337 579.852 160.993 571.923C166.122 565.813 170.502 559.07 175.193 552.59C175.662 551.944 175.973 551.183 176.524 550.165C175.659 550.18 175.062 550.086 174.518 550.219C170.457 551.212 166.409 552.25 162.355 553.276C162.178 553.32 161.976 553.334 161.834 553.431C156.836 556.966 150.711 556.269 145.187 557.837C138.461 559.744 131.606 561.185 124.872 563.072C121.549 564.003 118.322 565.197 114.818 565.289C114.013 565.309 113.184 565.504 112.417 565.765C106.262 567.84 99.7958 568.336 93.48 569.595C91.8883 569.912 90.3434 570.463 88.7801 570.905C87.8213 571.178 86.8716 571.611 85.8958 571.691C79.3013 572.213 73.127 574.448 66.8583 576.292C49.686 581.347 32.5241 586.433 15.3597 591.509C6.46292 594.139 -2.13207 597.598 -10.764 600.976C-17.953 603.789 -25.3184 606.165 -32.4572 609.101C-36.7438 610.863 -41.0322 612.538 -45.4753 613.829C-45.9971 613.982 -46.4925 614.24 -47.0222 614.349C-48.7384 614.709 -50.0398 613.999 -49.8093 612.382C-49.3997 609.507 -50.1264 607.061 -51.0097 604.37C-51.6131 602.532 -52.1047 600.67 -52.8822 598.844C-53.6109 597.137 -54.0189 595.169 -54.045 593.311C-54.0968 589.723 -54.6816 586.265 -55.5616 582.807C-56.7655 578.081 -55.3472 575.406 -50.758 573.605C-48.5621 572.743 -46.2896 572.077 -44.0752 571.255C-35.3057 568.001 -26.589 564.602 -17.7752 561.48C-9.04152 558.386 -0.268232 555.384 8.58295 552.65C23.773 547.959 39.0403 543.51 54.27 538.944C55.6466 538.542 56.981 538.016 58.7974 537.381Z" fill="black"/>
<path d="M260.175 817.283C258.554 817.573 257.389 817.706 256.265 817.994C246.854 820.42 237.465 822.938 228.04 825.309C213.678 828.921 199.294 832.444 184.912 835.985C183.149 836.418 181.335 836.656 179.576 837.104C175.89 838.047 172.221 839.067 168.548 840.065C167.935 840.232 167.347 840.491 166.735 840.654C157.522 843.11 148.305 845.552 139.093 848.01C137.601 848.409 136.062 848.727 134.662 849.349C130.975 850.99 127.058 851.716 123.165 852.618C116.621 854.136 110.126 855.87 103.612 857.522C103.263 857.611 102.89 857.696 102.588 857.881C99.6171 859.698 96.2434 859.941 92.9284 860.498C90.5257 860.901 88.1387 861.492 85.8079 862.207C79.7305 864.074 73.5435 865.692 67.6768 868.089C61.0804 870.786 53.8445 871.23 47.4226 874.277C43.2748 876.247 38.8922 877.34 34.4917 878.418C32.6443 878.872 30.7435 879.122 28.8534 879.37C27.8702 879.499 26.8461 879.543 25.8658 879.424C22.6495 879.033 21.7779 877.293 23.2481 874.363C23.1523 874.226 23.0836 874.007 22.9586 873.967C19.7727 872.93 17.4197 871.035 16.0952 867.837C15.7504 867.005 14.7891 866.34 13.9754 865.805C10.93 863.806 9.54565 860.978 9.93673 857.429C10.2864 854.234 9.59662 851.314 8.47715 848.374C7.94085 846.965 7.6821 845.382 7.64043 843.869C7.59298 842.13 8.1541 841.672 9.8504 841.312C10.206 841.238 10.5681 841.179 10.9309 841.167C19.9143 840.852 28.1278 837.612 36.3703 834.478C37.4729 834.06 38.5629 833.58 39.6965 833.276C62.0657 827.246 84.4263 821.181 106.82 815.25C115.952 812.831 125.191 810.817 134.334 808.432C145.147 805.613 155.865 802.436 166.698 799.699C186.168 794.779 205.729 790.225 225.18 785.239C249.298 779.061 273.353 772.626 297.417 766.242C303.124 764.729 308.764 762.968 314.435 761.324C315.22 761.097 315.996 760.772 316.799 760.685C323.067 760.015 328.972 757.794 335.081 756.438C338.876 755.595 342.533 754.139 346.284 753.076C358.258 749.677 370.252 746.358 382.225 742.957C390.436 740.624 398.579 738.03 406.845 735.903C411.576 734.686 416.496 734.225 421.315 733.336C430.783 731.588 440.265 729.899 449.38 726.643C455.492 724.461 461.404 728.486 461.946 735.054C462.043 736.221 462.336 737.367 462.488 738.532C462.945 742.042 463.354 745.561 463.827 749.069C464.141 751.404 464.353 753.772 464.928 756.048C465.716 759.171 465.225 761.999 463.666 764.712C462.644 766.492 461.041 767.443 459.038 767.722C457.059 767.997 455.062 768.168 453.091 768.497C449.421 769.109 445.761 769.783 442.104 770.468C435.946 771.617 429.807 772.872 423.634 773.937C418.359 774.847 413.079 775.533 407.939 777.256C402.091 779.218 396.027 780.53 390.076 782.191C376.86 785.876 363.651 789.576 350.454 793.326C347.048 794.295 343.69 795.44 340.327 796.561C334.538 798.489 328.646 800.016 322.607 800.885C318.827 801.429 315.997 803.211 313.353 806.037C308.455 811.273 303.09 816.071 297.938 821.069C296.438 822.524 294.844 823.917 293.559 825.546C284.213 837.415 275.376 849.645 267.847 862.78C266.987 864.278 266.227 865.835 265.436 867.369C265.358 867.518 265.374 867.717 265.276 868.307C266.311 868.083 267.228 867.925 268.123 867.689C289.295 862.095 310.448 856.432 331.639 850.912C344.301 847.613 357.102 844.825 369.693 841.284C385.695 836.782 401.535 831.706 417.471 826.973C423.652 825.137 429.892 823.483 436.14 821.886C446.9 819.139 457.43 815.711 467.639 811.338C469.304 810.625 470.895 809.726 472.471 808.829C477.293 806.084 481.911 807.793 483.278 813.21C484.611 818.498 485.443 823.911 486.53 829.263C487.379 833.446 488.067 837.678 489.227 841.776C490.141 845.009 489.636 848.091 489.217 851.23C489.069 852.323 488.286 852.903 487.218 853.214C482.772 854.503 478.343 855.85 473.9 857.153C470.327 858.202 466.723 859.158 463.173 860.274C460.145 861.225 457.123 862.227 454.186 863.423C451.464 864.531 448.713 865.232 445.783 865.55C441.995 865.96 438.231 866.635 434.484 867.342C430.382 868.115 426.287 868.965 422.232 869.962C419.772 870.566 417.41 871.562 414.981 872.298C408.117 874.383 401.146 876.165 394.395 878.566C387.824 880.902 380.914 881.433 374.233 883.135C369.753 884.277 365.151 884.932 360.637 885.96C358.167 886.521 355.79 887.492 353.332 888.115C339.589 891.593 325.836 895.029 312.085 898.462C310.941 898.746 309.762 898.879 308.608 899.138C305.603 899.81 302.55 900.333 299.617 901.24C293.281 903.199 287.056 905.533 280.389 906.195C279.939 906.24 279.438 906.26 279.064 906.475C274.704 908.984 269.7 909.263 264.991 910.536C254.902 913.257 244.769 915.804 234.643 918.388C232.091 919.039 229.494 919.508 226.933 920.137C223.766 920.914 220.618 921.77 217.459 922.584C216.756 922.765 216.052 922.999 215.334 923.062C205.761 923.912 196.759 927.306 187.447 929.319C175.904 931.814 164.405 934.52 152.886 937.135C151.645 937.416 150.406 937.701 149.162 937.971C141.174 939.697 133.183 941.415 125.194 943.146C120.23 944.221 115.207 945.023 110.534 947.236C108.936 947.991 107.036 948.264 105.245 948.428C99.1474 948.979 93.2248 950.292 87.403 952.146C86.5507 952.417 85.6132 952.65 84.7394 952.586C81.9202 952.378 79.3847 953.232 76.816 954.223C75.0611 954.901 73.1649 955.215 71.3387 955.709C69.9423 956.088 68.5009 956.365 67.1771 956.922C64.5639 958.017 61.9747 959.05 59.0587 958.961C57.509 958.916 56.2545 959.707 55.283 960.855C54.1094 962.242 52.6167 962.957 50.8938 963.403C48.8749 963.925 46.897 964.611 44.9045 965.228C43.863 965.552 42.8392 965.936 41.7824 966.199C38.4698 967.026 37.7871 966.453 37.5638 963.011C37.4638 961.479 37.0951 959.963 36.8919 958.435C36.7762 957.551 36.6076 956.636 36.7116 955.765C36.905 954.135 36.6587 952.659 35.5695 951.424C34.4102 950.11 34.0694 948.548 33.9729 946.883C33.9357 946.247 33.8298 945.584 33.9567 944.975C34.8848 940.532 33.9458 936.34 32.5223 932.145C32.072 930.821 31.9867 929.246 32.1885 927.853C32.6967 924.333 35.2017 922.736 38.3921 921.768C56.1446 916.388 74.1281 911.937 92.2785 908.111C98.9433 906.706 105.528 904.935 112.183 903.479C115.728 902.704 119.369 902.373 122.921 901.624C133.766 899.34 144.601 897.007 155.413 894.571C160.641 893.394 165.767 891.747 171.015 890.672C175.004 889.854 178.5 888.236 182.02 886.253C185.143 884.496 188.743 883.578 192.154 882.344C193.261 881.945 194.42 881.676 195.572 881.421C201.513 880.092 206.862 877.502 211.829 874.011C213.605 872.761 215.596 871.821 217.435 870.654C219.655 869.246 221.989 867.945 223.974 866.246C227.977 862.823 231.815 859.202 235.645 855.583C236.893 854.405 238.036 853.065 238.995 851.641C246.004 841.229 252.931 830.761 259.137 819.838C259.522 819.168 259.73 818.401 260.175 817.283Z" fill="black"/>
<path d="M-146.384 112.238C-147.509 112.701 -148.602 113.269 -149.764 113.608C-153.512 114.707 -157.29 115.712 -161.048 116.782C-162.159 117.098 -163.395 117.273 -164.003 118.697C-163.119 119.659 -162.076 119.298 -161.09 118.963C-160.061 118.614 -159.093 118.061 -158.05 117.776C-157.199 117.544 -156.122 117.24 -155.416 117.565C-153.755 118.332 -152.233 117.928 -150.64 117.591C-147.085 116.836 -143.531 116.072 -139.964 115.376C-137.872 114.968 -135.902 114.405 -134.659 112.393C-134.048 112.646 -133.536 112.817 -133.061 113.062C-131.557 113.839 -130.178 113.685 -129.194 112.294C-128.075 110.71 -126.856 110.614 -125.214 111.448C-123.656 112.24 -122.13 111.838 -121.035 110.507C-120.025 109.278 -118.875 108.722 -117.278 108.744C-116.405 108.758 -115.538 108.241 -114.647 108.104C-113.512 107.928 -112.358 107.886 -111.21 107.798C-109.05 107.632 -106.834 107.708 -104.752 107.213C-103.677 106.956 -102.841 105.693 -101.786 104.791C-100.965 105.195 -100.087 105.627 -99.0099 106.159C-98.285 105.443 -97.5363 104.7 -96.7936 103.966C-95.2658 104.025 -93.5703 104.532 -92.2703 104.026C-90.6678 103.402 -89.3901 101.935 -88.0696 100.54C-91.6817 100.174 -95.1455 101.208 -98.7944 101.26C-98.6384 100.044 -97.6912 100.076 -97.0191 99.8831C-87.247 97.0859 -77.4947 94.2091 -67.6798 91.5729C-56.8001 88.6493 -45.8723 85.908 -34.9432 83.172C-19.6956 79.3559 -4.41771 75.6618 10.8272 71.8351C22.194 68.9817 33.5022 65.8811 44.8881 63.1047C65.6319 58.0479 86.5044 53.4855 107.16 48.0986C128.783 42.4599 150.692 37.8029 171.912 30.7358C184.867 26.4229 198.027 22.9658 211.15 19.3012C219.46 16.9803 227.706 14.4248 235.922 11.7837C243.297 9.41384 250.815 7.71802 258.426 6.3649C260.031 6.07822 261.644 5.71072 263.17 5.15094C264.978 4.48421 266.579 4.68851 268.031 5.85602C269.333 6.90605 270.633 7.30341 272.301 6.75311C274.245 6.11175 275.864 6.84085 277.108 8.42883C278.856 10.6602 280.429 12.8675 280.382 15.9903C280.358 17.5222 281.081 19.2201 281.898 20.5795C283.711 23.5942 284.364 26.8074 284.26 30.2428C284.143 34.0897 284.507 37.8392 285.786 41.5329C286.332 43.106 286.095 44.9444 286.248 46.6574C286.435 48.7283 286.405 50.8585 286.907 52.8536C288.558 59.3772 290.329 65.8738 292.217 72.3327C293.032 75.1201 294.214 77.8019 295.292 80.5068C297.834 86.8818 299.333 93.553 300.752 100.227C301.995 106.072 301.641 112.006 300.892 117.893C300.195 123.368 300.516 128.727 302.254 133.993C303.229 136.952 301.789 139.199 298.626 139.702C295.577 140.187 292.491 140.465 289.46 141.048C282.417 142.403 275.398 143.873 268.373 145.323C263.306 146.369 258.217 147.323 253.194 148.545C239.777 151.804 226.383 155.159 212.995 158.537C209.65 159.381 206.404 160.633 203.044 161.393C191.795 163.941 180.5 166.29 169.251 168.849C165.37 169.733 161.578 171.009 157.749 172.108C157.489 172.184 157.244 172.329 156.978 172.379C152.609 173.198 148.238 174.012 143.865 174.816C143.061 174.963 142.23 174.981 141.442 175.185C131.954 177.642 122.282 179.417 113.086 182.947C111.494 183.557 109.788 184.046 108.1 184.193C105.675 184.405 104.407 183.251 104.5 180.846C104.586 178.637 103.857 176.791 103.007 174.854C101.726 171.944 100.663 168.937 99.5212 165.966C98.1825 162.484 96.8073 159.014 95.546 155.505C94.6235 152.939 93.7692 150.341 93.04 147.716C91.2881 141.409 87.7305 136.176 83.3915 131.442C82.4464 130.413 81.0741 129.679 79.7698 129.094C76.6227 127.681 73.3807 126.474 70.2117 125.109C67.9783 124.147 65.7884 124.219 63.5905 125.107C61.3515 126.01 60.2298 127.911 60.5977 130.316C60.7602 131.388 61.1015 132.443 61.4482 133.475C64.6306 142.92 66.8761 152.533 67.13 162.563C67.1914 164.992 67.7089 167.445 68.3145 169.811C69.1015 172.884 69.3981 175.885 68.4256 178.951C67.6728 181.328 67.917 183.621 69.1907 185.79C69.5126 186.338 69.8372 186.896 70.0756 187.482C71.4245 190.789 69.8122 194.144 66.3381 194.853C64.0393 195.324 61.6482 195.345 59.3118 195.653C56.355 196.045 53.3031 196.168 50.481 197.022C31.6962 202.695 13.0202 208.738 -5.8122 214.254C-23.7719 219.514 -41.8543 224.359 -59.9249 229.229C-77.5577 233.982 -95.2665 238.453 -112.891 243.226C-120.243 245.216 -127.464 247.685 -134.753 249.904C-137.012 250.593 -139.291 251.222 -141.585 251.781C-143.245 252.186 -144.134 251.664 -144.734 250.008C-145.007 249.251 -145.12 248.424 -145.211 247.616C-145.454 245.452 -145.485 243.249 -145.907 241.125C-146.326 239.008 -147.016 236.927 -147.778 234.904C-148.827 232.121 -149.349 229.368 -148.843 226.362C-148.566 224.716 -148.915 222.965 -148.996 221.259C-149.031 220.541 -149.297 219.777 -149.129 219.119C-148.624 217.157 -149.123 215.367 -149.644 213.5C-151.601 206.493 -153.445 199.454 -155.358 192.432C-158.014 182.685 -160.695 172.946 -163.362 163.201C-163.624 162.236 -163.995 161.264 -164.048 160.283C-164.349 154.677 -166.38 149.441 -167.413 144C-168.175 140 -168.784 135.878 -168.674 131.833C-168.597 129.046 -167.233 126.299 -167.994 123.364C-168.088 122.996 -167.842 122.425 -167.575 122.097C-166.559 120.856 -166.892 119.621 -167.298 118.258C-168.069 115.668 -167.647 114.98 -165.047 114.432C-160.157 113.398 -155.263 112.395 -150.353 111.463C-149.161 111.237 -147.902 111.346 -146.675 111.303C-146.572 111.626 -146.479 111.932 -146.384 112.238ZM-138.039 207.26C-137.101 207.089 -136.472 207.014 -135.864 206.86C-130.149 205.401 -124.356 204.177 -118.748 202.379C-114.159 200.908 -109.512 199.836 -104.841 198.725C-97.6003 197.002 -90.476 194.776 -83.3234 192.698C-81.325 192.117 -79.4157 191.222 -77.426 190.606C-75.1905 189.915 -72.9292 189.27 -70.639 188.799C-66.9127 188.03 -63.1441 187.464 -59.4125 186.715C-57.0978 186.252 -54.8055 185.665 -52.531 185.029C-50.2612 184.396 -47.9285 183.847 -45.7981 182.881C-42.0458 181.176 -38.1635 179.982 -34.1636 179.079C-21.1239 176.134 -8.27484 172.489 4.43361 168.348C9.439 166.717 14.3276 164.695 19.3725 163.212C29.5724 160.212 39.8436 157.466 50.0843 154.608C52.9038 153.822 53.2678 153.126 52.3985 150.299C52.2922 149.951 52.1443 149.616 52.0148 149.277C47.3467 137.025 44.7889 124.314 43.6181 111.288C43.4758 109.711 43.0423 108.16 42.7227 106.48C41.5389 106.673 40.7398 106.773 39.9565 106.937C33.8188 108.222 27.6863 109.528 21.5453 110.8C20.4833 111.019 19.3663 111.322 18.3218 111.194C16.0137 110.915 14.0238 111.531 12.1262 112.755C10.5557 113.768 8.87053 114.274 6.94636 114.001C6.29903 113.909 5.44821 114.095 4.92757 114.478C3.29139 115.679 1.472 115.963 -0.475625 116.014C-2.47353 116.066 -4.49062 116.098 -6.45173 116.434C-7.83813 116.672 -9.15741 117.36 -10.4746 117.922C-11.7024 118.447 -12.8344 119.266 -14.1031 119.616C-23.8254 122.308 -33.5629 124.939 -43.3089 127.535C-46.2051 128.306 -49.1192 129.085 -52.0721 129.549C-61.7271 131.065 -70.8339 134.592 -80.227 137.069C-83.4728 137.928 -86.6389 139.163 -89.9268 139.773C-98.3433 141.337 -106.587 143.518 -114.776 145.975C-116.422 146.469 -118.141 146.725 -119.832 147.05C-122.148 147.497 -124.511 147.755 -126.785 148.36C-131.524 149.626 -136.249 150.971 -140.92 152.468C-144.376 153.576 -147.756 154.935 -151.143 156.256C-152.999 156.979 -153.262 157.47 -152.697 159.106C-151.065 163.835 -149.335 168.529 -147.705 173.259C-144.597 182.28 -140.895 191.126 -139.637 200.704C-139.356 202.83 -138.626 204.903 -138.039 207.26ZM287.032 105.82C286.674 103.612 286.519 101.713 286.04 99.9009C284.276 93.228 282.404 86.5849 280.566 79.9332C280.493 79.6727 280.404 79.4075 280.282 79.1649C277.624 73.9055 276.344 68.2411 275.232 62.5068C274.646 59.4852 273.771 56.5189 272.939 53.1782C269.003 53.3186 265.176 53.1616 261.434 53.656C255.333 54.4646 249.151 54.623 243.108 55.9379C238.764 56.8834 234.354 57.516 230.008 58.4483C224.505 59.6287 219.034 60.959 213.553 62.2408C206.149 63.9759 198.747 65.7275 191.346 67.4758C191.083 67.5384 190.832 67.6686 190.566 67.7206C187.282 68.38 184.021 69.1858 180.71 69.6378C177.901 70.0215 175.15 70.416 172.59 71.737C171.797 72.1453 170.889 72.3376 170.024 72.5921C168.91 72.9173 167.773 73.1662 166.668 73.5145C162.808 74.7224 159.199 76.8337 154.934 76.5661C153.971 76.5045 152.975 76.9126 152.002 77.1266C149.075 77.7759 146.167 78.508 143.224 79.0599C141.553 79.3743 140.23 79.8555 140.279 81.6565C139.164 81.8438 138.223 81.8922 137.358 82.172C136.005 82.6101 134.743 83.3942 133.366 83.6918C129.553 84.5194 125.646 84.9818 122.246 87.1398C121.874 87.3758 121.409 87.5309 120.971 87.5919C116.301 88.2501 111.614 88.8108 106.957 89.5471C104.478 89.9386 101.967 89.9186 99.5229 90.8674C96.8575 91.8993 93.9583 92.3194 91.1634 93.0232C90.11 93.2881 89.0235 93.4993 88.0341 93.92C86.6355 94.5157 86.4343 95.1767 87.1229 96.4976C87.4996 97.2203 88.0101 97.8704 88.4689 98.5502C91.1795 102.561 93.443 106.798 95.2079 111.314C96.7309 115.209 98.1527 119.16 99.9559 122.926C102.042 127.286 104.092 131.627 105.346 136.318C105.719 137.714 106.33 139.06 106.934 140.382C107.82 142.313 108.463 142.719 110.579 142.282C114.664 141.438 118.749 140.551 122.775 139.471C125.585 138.715 128.35 137.993 131.289 137.789C133.801 137.611 136.28 136.902 138.763 136.371C140.448 136.011 142.101 135.473 143.795 135.162C153.531 133.373 163.275 131.627 173.018 129.865C178.021 128.96 183.139 128.45 187.996 127.033C193.833 125.333 199.7 123.82 205.62 122.471C208.718 121.765 211.797 120.974 214.883 120.209C220.964 118.704 227.048 117.205 233.123 115.677C241.044 113.683 248.9 111.413 257.042 110.395C259.369 110.104 261.635 109.343 263.958 108.973C267.178 108.462 270.421 107.807 273.661 107.773C278.165 107.733 282.327 106.149 287.032 105.82ZM-32.7509 87.9251C-31.3318 85.9419 -29.3821 85.6624 -27.1688 86.1027C-25.6749 86.3983 -24.3672 86.0702 -23.1654 84.9547C-22.4982 84.3354 -21.4513 83.9764 -20.5204 83.818C-15.2754 82.9128 -9.93409 82.4624 -4.99038 80.2329C-4.50959 80.0176 -3.91717 80.0701 -3.39542 79.929C-1.93074 79.5308 -0.388087 79.2765 0.952343 78.6164C2.09012 78.0574 3.07806 77.7891 4.30772 78.1195C5.47319 78.4292 6.57088 78.2969 7.30163 76.8932C5.28488 75.7958 3.50972 75.4885 1.44025 76.3384C-0.386807 77.0886 -2.36386 77.5073 -4.30716 77.926C-6.6027 78.4211 -8.95891 78.6498 -11.2386 79.1973C-14.15 79.8963 -16.9934 80.8683 -19.8975 81.6078C-28.8754 83.8893 -37.873 86.08 -46.8463 88.3801C-51.325 89.5282 -55.7687 90.8168 -60.2184 92.0815C-61.2142 92.363 -62.1646 92.805 -63.136 93.1734C-63.1389 93.3768 -63.1443 93.5809 -63.1472 93.7843C-62.1148 94.2257 -61.0859 94.6651 -60.6392 94.8552C-58.7704 94.058 -57.428 93.4735 -56.0784 92.9068C-53.8321 91.9651 -51.461 92.1353 -49.1036 92.0696C-47.4897 92.0228 -45.7328 92.1094 -44.3084 91.5044C-41.9197 90.4907 -39.7498 89.1062 -37.1668 88.3537C-35.6497 87.9059 -34.3624 87.4279 -32.7509 87.9251ZM17.9488 74.1991C15.6077 72.2956 13.1042 72.7917 11.0723 75.3863C13.1631 76.623 15.7339 76.217 17.9488 74.1991ZM-66.4806 94.867C-68.8728 93.8771 -69.5051 94.1161 -70.4374 95.8515C-69.1344 95.5273 -67.8075 95.1971 -66.4806 94.867Z" fill="black"/>
<path d="M117.205 244.163C118.163 245.236 118.672 246.129 119.439 246.597C121.12 247.626 122.715 248.836 124.864 248.972C126.65 249.085 127.46 250.589 127.837 252.137C128.267 253.9 128.491 255.716 128.723 257.519C128.935 259.15 129.382 260.461 131.204 261.013C132.639 261.447 133.26 262.756 133.503 264.16C133.671 265.143 133.829 266.171 133.723 267.148C133.18 272.211 132.77 277.299 131.114 282.176C129.625 286.567 128.27 291.003 126.797 295.401C126.308 296.86 125.82 298.37 125.019 299.661C123.415 302.248 120.493 302.505 118.691 300.113C117.38 298.372 115.762 297.159 113.99 296.06C108.896 292.904 103.803 289.751 98.6757 286.654C97.8348 286.145 96.8447 285.862 95.891 285.568C93.5449 284.842 91.1656 284.232 88.8348 283.466C86.1029 282.569 85.3977 281.295 85.7782 278.528C86.7929 271.144 87.7891 263.754 88.7628 256.363C88.9261 255.131 88.9259 253.876 89.0294 252.144C85.83 252.94 82.9981 253.552 80.2217 254.352C70.7926 257.07 61.3827 259.853 51.9668 262.612C34.27 267.798 16.5693 272.979 -1.12357 278.18C-6.52744 279.77 -11.9478 281.315 -17.2956 283.074C-20.5661 284.149 -23.7065 285.612 -26.9215 286.854C-28.779 287.572 -30.6392 288.325 -32.5568 288.836C-40.1913 290.876 -47.9023 292.654 -55.2656 295.615C-55.8536 295.851 -56.4615 296.098 -57.0832 296.188C-62.4989 296.984 -67.5584 299.098 -72.8289 300.432C-77.497 301.61 -82.165 302.811 -86.7671 304.221C-94.1595 306.488 -101.605 308.495 -109.21 309.92C-113.402 310.707 -114.603 312.65 -113.363 316.73C-111.746 322.041 -110.027 327.266 -106.2 331.593C-102.632 335.627 -98.461 338.474 -93.2582 339.716C-86.4438 341.343 -79.5991 341.453 -72.7494 339.853C-72.0555 339.692 -71.2881 339.566 -70.6024 339.688C-68.0006 340.153 -65.5329 339.66 -63.1086 338.801C-59.1408 337.397 -55.1091 336.498 -50.8572 336.439C-48.8897 336.412 -46.9059 335.884 -44.9732 335.401C-34.1354 332.682 -23.2944 329.987 -12.181 328.591C-10.2008 328.343 -8.22317 327.994 -6.27589 327.558C4.62586 325.119 15.5249 322.669 26.4102 320.152C28.8806 319.58 31.2995 318.767 33.7198 317.993C37.3518 316.833 40.9706 315.62 44.5881 314.413C45.6218 314.069 46.7163 313.81 47.6462 313.275C53.5322 309.893 60.2227 308.569 66.3769 305.881C67.361 305.45 68.4601 305.211 69.532 305.065C71.2918 304.824 72.3326 305.413 72.9315 307.097C73.4472 308.548 73.7067 310.088 74.088 311.587C74.9654 315.023 75.715 318.499 76.7646 321.881C78.2379 326.628 78.3144 331.4 77.3013 336.18C76.8446 338.334 76.7171 340.275 78.0129 342.171C78.3613 342.678 78.5362 343.336 78.6753 343.952C79.2484 346.447 78.2629 348.365 75.7971 349.012C74.1517 349.441 72.3894 349.57 70.6762 349.579C67.3338 349.597 64.2339 350.172 61.346 352.039C60.108 352.839 58.4708 353.041 56.9981 353.453C55.4282 353.891 53.8001 354.141 52.2639 354.67C48.3126 356.027 44.4069 357.523 40.4649 358.906C38.6776 359.534 36.8996 360.232 34.8987 359.9C34.2242 359.789 33.4594 360.049 32.7655 360.245C28.9171 361.326 25.1227 362.647 21.2235 363.491C16.1028 364.601 11.3444 366.852 6.11004 367.676C-0.404132 368.703 -6.80839 370.42 -13.2851 371.71C-15.1317 372.077 -17.1187 371.766 -18.956 372.158C-24.4588 373.339 -29.9333 374.667 -35.3979 376.024C-43.4911 378.029 -51.548 380.191 -59.663 382.109C-62.4731 382.774 -65.3972 383.048 -68.287 383.258C-74.2658 383.689 -80.2589 383.95 -86.2436 384.302C-88.6606 384.444 -90.8685 383.89 -93.0833 382.867C-98.1613 380.521 -102.532 377.456 -105.276 372.395C-105.786 371.455 -106.652 370.71 -107.359 369.878C-109.029 367.917 -110.113 365.695 -111.011 363.25C-112.544 359.079 -114.439 355.032 -116.366 351.018C-119.022 345.487 -121.08 339.78 -122.239 333.745C-122.458 332.603 -123.01 331.527 -123.354 330.404C-124.044 328.149 -124.743 325.894 -125.355 323.616C-127.124 317.026 -128.848 310.422 -130.596 303.827C-130.689 303.476 -130.792 303.118 -130.959 302.797C-133.129 298.587 -133.783 294.037 -134.261 289.389C-134.68 285.321 -135.518 281.295 -136.176 277.252C-136.234 276.893 -136.323 276.537 -136.378 276.179C-137.054 271.674 -135.305 269.245 -130.832 268.468C-126.541 267.721 -122.219 267.107 -117.965 266.184C-105.28 263.428 -92.5389 260.866 -79.9782 257.623C-68.3742 254.626 -56.8969 251.075 -45.4976 247.358C-30.9661 242.619 -16.1147 239.076 -1.43873 234.884C6.59914 232.589 14.6245 230.243 22.6868 228.035C30.3961 225.922 38.1609 224.01 45.8762 221.922C58.6821 218.454 71.4741 214.942 84.2601 211.406C120.956 201.26 157.968 192.308 194.704 182.315C199.438 181.027 204.126 179.568 208.858 178.275C212.361 177.319 215.927 176.584 219.424 175.604C227.555 173.331 235.669 170.994 243.776 168.636C247.873 167.445 251.941 166.149 256.02 164.897C257.93 164.312 259.905 163.874 261.735 163.101C265.799 161.383 270.047 160.599 274.381 159.943C280.613 159.001 286.834 158.743 293.113 159.199C296.169 159.422 298.892 160.363 301.635 161.744C306.717 164.309 310.285 168.286 313.926 172.555C319.769 179.398 322.827 187.486 325.965 195.619C327.57 199.775 328.84 204.065 330.544 208.18C332.272 212.359 333.182 216.646 333.619 221.129C334.29 228.009 335.253 234.864 336.073 241.73C336.181 242.626 336.362 243.572 336.194 244.433C335.651 247.215 336.113 249.881 336.921 252.51C337.982 255.959 338.147 259.426 337.873 263.028C337.669 265.703 338.195 268.438 338.435 271.143C338.588 272.856 338.966 274.564 338.972 276.274C338.979 278.485 338.284 279.117 336.049 279.403C335.332 279.494 334.599 279.485 333.872 279.491C327.112 279.565 320.489 280.459 313.965 282.304C310.841 283.189 307.54 283.43 304.354 284.121C302.334 284.559 300.141 284.913 298.445 285.974C295.729 287.675 292.811 288.37 289.788 289.037C282.604 290.628 275.366 292.059 268.291 294.051C262.096 295.795 256.095 298.22 250.003 300.329C248.977 300.683 247.936 301.134 246.874 301.229C243.721 301.512 240.925 302.74 238.128 304.092C234.776 305.711 231.379 307.249 227.947 308.694C226.369 309.36 224.677 309.784 223.007 310.205C219.746 311.022 216.491 311.902 213.189 312.501C205.787 313.847 199.249 317.659 192.103 319.718C191.06 320.017 190.002 320.263 188.945 320.501C184.416 321.515 179.965 322.727 176.016 325.305C175.561 325.602 175.092 325.898 174.592 326.102C172.533 326.938 170.972 326.239 170.363 324.096C169.993 322.789 169.774 321.425 169.629 320.07C169.211 316.221 167.902 312.653 166.531 309.067C165.834 307.236 165.201 305.18 165.318 303.276C165.598 298.814 164.593 294.596 163.632 290.339C163.511 289.806 163.357 289.278 163.277 288.741C162.799 285.487 164.047 283.696 167.249 283.071C177.351 281.101 187.147 278.05 196.796 274.531C207.208 270.733 217.565 266.782 227.951 262.917C229.056 262.507 230.209 262.223 231.336 261.872C234.282 260.951 237.108 259.806 239.881 258.381C243.419 256.563 247.183 255.12 250.963 253.853C259.924 250.846 269.024 248.323 278.264 246.269C283.663 245.067 288.927 243.265 294.27 241.806C298.39 240.682 302.514 239.546 306.688 238.654C309.962 237.955 313.306 237.523 316.637 237.156C319.711 236.819 320.277 236.256 319.846 233.201C319.358 229.745 318.283 226.487 316.725 223.355C315.757 221.409 314.922 219.378 314.214 217.322C312.617 212.691 309.5 209.173 306.087 205.855C305.895 205.669 305.651 205.513 305.404 205.414C300.52 203.431 295.696 201.255 290.401 200.557C287.182 200.133 284.057 200.418 281.069 201.789C280.329 202.128 279.559 202.483 278.77 202.609C269.234 204.131 260.008 206.837 250.788 209.638C245.493 211.246 240.027 212.293 234.646 213.612C226.348 215.643 218.065 217.723 209.754 219.701C207.468 220.244 205.053 220.293 202.808 220.947C200.073 221.743 197.482 223.052 194.532 222.928C192.068 224.884 189.025 225.21 186.117 225.855C173.426 228.666 160.86 231.899 148.44 235.786C139.255 238.66 129.855 240.841 120.552 243.327C119.629 243.574 118.68 243.796 117.205 244.163ZM-90.1021 263.776C-90.2085 263.575 -90.3182 263.371 -90.4246 263.17C-90.6814 263.121 -90.9527 262.991 -91.1891 263.036C-95.1961 263.797 -99.2051 264.56 -103.2 265.38C-104.051 265.555 -104.894 265.919 -104.951 267.158C-100.688 266.492 -96.5623 265.902 -92.4646 265.155C-91.6231 264.999 -90.8869 264.25 -90.1021 263.776ZM-37.2328 370.695C-37.1761 370.945 -37.1174 371.192 -37.0607 371.443C-31.5049 370.249 -25.9438 369.066 -20.3973 367.835C-19.9894 367.745 -19.6574 367.305 -19.2904 367.027C-25.4805 367.627 -31.4045 368.957 -37.2328 370.695ZM-80.6102 261.131C-83.8583 260.928 -87.5225 261.71 -89.8731 263.159C-88.6691 263.307 -87.8863 263.616 -87.2321 263.442C-85.1344 262.887 -82.7448 263.109 -80.6102 261.131ZM26.5871 357.319C22.6578 357.103 19.1756 358.797 15.5403 359.854C19.3925 359.782 23.058 358.87 26.5871 357.319ZM-82.9921 344.851C-80.8013 345.992 -80.8013 345.992 -78.5889 345.22C-80.1504 344.324 -81.3959 343.93 -82.9921 344.851ZM-75.9152 377.478C-74.4402 377.302 -73.5166 377.194 -72.3037 377.05C-74.5405 375.509 -74.5405 375.509 -75.9152 377.478ZM237.761 297.035C237.819 297.175 237.874 297.316 237.931 297.457C238.339 297.299 238.746 297.139 239.157 296.98C239.097 296.832 239.037 296.681 238.978 296.532C238.569 296.699 238.167 296.866 237.761 297.035Z" fill="black"/>
<path d="M7.79628 745.449C1.44485 747.356 -4.97065 749.073 -10.9213 752.116C-11.4776 752.401 -12.1126 752.595 -12.7317 752.685C-14.5484 752.945 -15.7181 752.166 -16.1984 750.405C-16.339 749.885 -16.4603 749.319 -16.4115 748.791C-16.0486 744.903 -17.1875 741.445 -19.1692 738.148C-20.5996 735.767 -21.1619 733.134 -21.2667 730.328C-21.3455 728.168 -21.8739 726.022 -22.244 723.879C-22.5845 721.911 -23.1389 719.966 -23.3165 717.986C-23.5859 714.958 -22.6963 713.583 -19.7788 712.682C-17.446 711.964 -14.9957 711.628 -12.6087 711.082C-10.4052 710.578 -8.19574 710.088 -6.02255 709.474C3.85541 706.684 13.7215 703.858 23.5896 701.039C25.6846 700.439 27.7487 699.703 29.8701 699.209C38.9908 697.084 47.732 693.738 56.654 690.972C66.025 688.066 75.4785 685.424 84.8779 682.598C91.4876 680.61 98.0669 678.512 104.657 676.458C113.85 673.594 123.025 670.669 132.24 667.87C142.757 664.676 153.31 661.592 163.852 658.474C165.07 658.114 166.296 657.753 167.544 657.513C177.738 655.562 187.611 652.413 197.57 649.575C202.538 648.159 207.689 647.392 212.745 646.281C214.512 645.892 216.246 645.342 217.998 644.878C218.961 644.622 219.918 644.263 220.899 644.171C223.832 643.9 225.903 645.35 226.38 648.252C226.821 650.938 226.982 653.677 227.158 656.398C227.407 660.212 227.551 664.034 227.755 667.849C227.788 668.48 227.755 669.175 228.005 669.726C230.008 674.135 232.168 678.443 236.436 681.196C240.107 683.56 243.767 685.941 247.423 688.325C251.002 690.661 254.959 691.847 259.164 692.423C260.936 692.663 262.664 693.264 264.396 693.759C268.318 694.884 272.228 696.051 276.145 697.182C276.927 697.407 277.755 697.491 278.525 697.75C285.169 699.99 291.747 699.626 298.326 697.438C317.471 691.061 336.866 685.538 356.393 680.46C360.868 679.296 365.218 677.656 369.689 676.465C372.925 675.601 376.264 675.119 379.556 674.455C392.738 671.8 405.92 669.143 419.101 666.483C421.238 666.052 423.384 665.645 425.504 665.146C427.935 664.572 428.306 664.015 427.599 661.73C426.389 657.817 425.111 653.923 423.779 650.051C422.52 646.389 420.401 643.208 417.994 640.214C416.101 637.862 414.307 635.47 413.633 632.431C413.381 631.294 412.652 630.592 411.456 630.985C406.708 632.552 401.7 631.813 396.876 632.667C394.015 633.173 391.136 633.585 388.272 634.089C386.098 634.473 384.071 635.245 382.31 636.623C381.194 637.497 379.949 637.692 378.528 637.814C371.827 638.392 365.169 639.342 358.822 641.715C358.016 642.017 357.2 642.611 356.677 643.293C355.305 645.079 353.439 645.797 351.366 646.34C343.286 648.455 335.185 650.496 327.17 652.839C321.232 654.575 315.298 656.204 309.194 657.286C305.361 657.966 301.61 659.133 297.834 660.121C295.463 660.742 293.132 661.538 290.743 662.074C288.239 662.635 287.662 662.181 287.113 659.75C287.014 659.307 286.894 658.859 286.872 658.408C286.638 653.759 285.095 649.503 282.952 645.442C282.008 643.652 281.725 641.845 282.413 639.919C282.94 638.454 282.731 637.061 282.03 635.701C281.447 634.568 280.843 633.44 280.354 632.267C279.408 629.999 279.871 628.155 281.885 626.765C282.912 626.056 284.108 625.491 285.311 625.149C292.386 623.133 299.489 621.205 306.578 619.233C316.995 616.338 327.411 613.439 337.821 610.517C338.865 610.223 339.851 609.733 340.885 609.389C343.466 608.53 346.022 607.576 348.651 606.894C353.213 605.708 357.857 604.82 362.404 603.582C368.904 601.809 375.442 600.312 382.168 599.731C383.156 599.646 384.146 599.431 385.101 599.154C394.961 596.292 404.811 593.402 414.668 590.528C415.363 590.324 416.067 590.115 416.784 590.024C419.205 589.714 420.964 590.499 421.861 592.761C422.62 594.679 423.215 596.766 423.324 598.811C423.576 603.439 423.545 608.083 423.506 612.722C423.489 614.598 423.722 616.37 424.712 617.954C426.443 620.719 428.16 623.504 430.078 626.138C431.244 627.737 431.941 629.41 432.348 631.316C432.82 633.527 433.468 635.706 434.12 637.872C434.879 640.392 435.668 642.906 436.557 645.385C437.163 647.076 437.762 648.827 438.717 650.326C440.986 653.895 442.776 657.639 443.818 661.738C445.435 668.09 447.058 674.443 448.696 680.79C449.157 682.576 449.38 684.333 448.954 686.179C448.759 687.024 448.828 688.004 449.039 688.861C449.835 692.129 450.679 695.384 451.609 698.616C452.646 702.218 451.229 704.471 447.574 704.589C438.621 704.877 429.89 706.672 421.229 708.689C411.494 710.956 401.808 713.343 391.885 714.753C386.509 715.516 381.22 716.967 375.945 718.319C366.798 720.665 357.686 723.155 348.569 725.62C342.779 727.187 337.003 728.793 331.236 730.439C329.582 730.913 327.998 731.622 326.36 732.162C323.35 733.15 320.314 734.063 317.307 735.054C312.477 736.644 307.672 738.315 302.831 739.871C292.975 743.042 283.099 746.157 273.232 749.296C267.522 751.114 261.826 752.985 256.093 754.735C252.447 755.847 248.725 756.714 245.076 757.816C238.293 759.867 231.575 762.13 224.766 764.088C216.037 766.601 207.265 768.963 198.481 771.278C185.743 774.633 172.984 777.915 160.216 781.164C157.23 781.924 154.181 782.441 151.158 783.066C150.891 783.122 150.585 783.091 150.356 783.212C146.659 785.185 142.443 785.116 138.541 786.264C137.262 786.639 136.09 787.367 134.866 787.928C134.131 788.263 133.418 788.699 132.645 788.903C120.519 792.086 108.401 795.312 96.2422 798.373C87.7861 800.503 79.2469 802.309 70.7835 804.42C59.6776 807.192 48.6165 810.132 37.5271 812.97C35.5943 813.465 33.6246 813.812 31.672 814.227C30.518 814.472 29.3375 814.633 28.2098 814.973C21.4372 817.018 14.6666 819.083 7.91118 821.186C2.80787 822.774 1.60967 822.039 0.896791 816.709C0.714626 815.355 0.521211 814.001 0.441 812.639C0.315122 810.516 -0.190914 808.584 -1.33649 806.727C-2.60964 804.661 -2.90935 802.236 -2.58552 799.852C-2.15442 796.69 -2.63239 793.729 -3.71078 790.751C-5.4046 786.08 -4.51011 783.65 -0.274506 781.152C3.00933 779.214 6.33083 777.326 9.70259 775.55C13.989 773.29 17.4459 770.206 19.9612 766.038C21.134 764.094 22.5913 762.32 23.7349 760.361C25.4686 757.381 27.172 754.37 28.6443 751.256C29.8912 748.615 29.5239 747.726 27.4258 745.759C26.0607 744.477 24.6602 743.415 22.6204 743.627C22.1378 743.677 21.4276 743.479 21.144 743.13C20.0463 741.782 18.7876 742.081 17.4328 742.502C14.2299 743.499 11.0117 744.469 7.79628 745.449ZM235.869 714.075C234.123 714.042 232.699 713.689 231.771 712.172C228.122 706.21 223.881 700.596 221.828 693.744C220.837 690.44 219.414 687.264 218.139 684.051C216.962 681.08 216.537 680.933 213.743 682.264C213.253 682.499 212.767 682.814 212.245 682.901C206.712 683.825 201.803 686.541 196.576 688.346C191.539 690.086 186.766 692.72 181.229 692.688C180.961 692.687 180.693 692.784 180.428 692.847C173.718 694.458 167.004 696.06 160.298 697.684C150.78 699.987 141.345 702.534 132.165 706.035C125.722 708.491 119.146 710.673 112.494 712.477C96.7044 716.76 81.041 721.415 65.6621 727.02C58.6687 729.568 51.7168 732.283 44.316 733.533C41.2472 734.052 41.0611 734.197 41.5052 737.27C42.7309 745.747 43.4655 754.227 43.3209 762.814C43.2357 767.75 43.7916 767.972 48.6365 766.669C57.4953 764.281 66.335 761.829 75.1786 759.381C97.938 753.076 120.672 746.669 143.463 740.472C159.419 736.133 175.446 732.07 191.447 727.903C198.743 726.003 206.06 724.18 213.352 722.267C221.349 720.171 229.332 718.016 237.319 715.876C238.69 715.51 240.053 715.109 241.127 714.126C238.746 710.364 238.016 710.359 235.869 714.075Z" fill="black"/>
<path d="M95.8638 462.495C96.713 460.459 96.1896 458.717 95.8112 456.948C95.0919 453.571 94.4211 450.185 93.7714 446.793C92.775 441.59 94.6975 437.075 97.3591 432.862C99.3611 429.695 107.888 427.239 111.276 428.797C112.886 429.537 114.371 430.713 115.657 431.959C120.936 437.067 123.284 443.544 124.279 450.687C124.728 453.914 125.622 457.079 126.286 460.278C126.488 461.25 126.743 462.251 126.708 463.228C126.577 466.864 126.403 470.503 126.119 474.132C125.751 478.827 123.858 482.93 120.823 486.466C119.962 487.472 118.763 488.224 117.629 488.945C116.419 489.713 115.1 490.309 113.749 491.019C114.035 491.953 114.263 492.702 114.506 493.495C113.024 494.922 111.281 494.835 109.575 494.724C107.983 494.622 106.576 494.857 105.192 495.784C102.975 497.27 101.598 497.095 99.5213 495.395C99.1012 495.052 98.7156 494.667 98.1117 494.116C95.4483 495.879 93.0446 494.493 90.593 493.253C89.0036 492.449 87.3552 491.758 85.734 491.019C85.6148 491.161 85.4948 491.3 85.3729 491.443C85.75 492.394 86.1272 493.345 86.6107 494.565C81.3873 493.387 78.7482 490.161 77.2885 485.741C77.0911 485.139 77.1348 484.388 76.7824 483.921C73.5233 479.594 72.9072 474.144 70.5911 469.413C69.6072 467.403 69.1246 465.102 68.6897 462.879C67.9338 459.027 66.9375 455.283 65.5526 451.593C64.6412 449.162 64.4709 446.453 63.9926 443.864C63.3516 440.383 62.9118 436.852 62.0649 433.425C60.8241 428.404 60.5188 423.368 61.0204 418.251C61.2075 416.358 61.3449 414.457 61.5362 412.208C60.7415 412.608 60.2387 412.905 59.705 413.122C58.0282 413.798 56.3871 414.651 54.6457 415.068C43.5068 417.718 32.3402 420.246 21.1954 422.861C7.66091 426.034 -5.8795 429.194 -19.3909 432.471C-31.2151 435.34 -43.0031 438.366 -54.8096 441.317C-55.6915 441.537 -56.5769 441.855 -57.4699 441.883C-62.2165 442.034 -66.4873 443.882 -70.8141 445.527C-73.0286 446.371 -75.2059 447.149 -77.6447 447.204C-78.9594 447.233 -80.2753 447.833 -81.5659 448.253C-83.6371 448.926 -85.6504 449.821 -87.7579 450.337C-90.9328 451.118 -92.8327 449.575 -93.0495 446.273C-93.3408 441.813 -94.6559 437.703 -97.2721 434.06C-98.8682 431.839 -99.3851 429.49 -98.6135 426.837C-98.4183 426.164 -98.2819 425.367 -98.4481 424.71C-99.0649 422.265 -99.7419 419.826 -100.557 417.442C-100.95 416.295 -100.845 415.427 -99.8203 414.876C-97.9864 413.894 -96.1656 412.79 -94.2023 412.158C-90.1451 410.853 -86.018 409.739 -81.8843 408.697C-60.12 403.209 -38.3471 397.755 -16.5696 392.309C3.44133 387.302 23.5044 382.493 43.4586 377.258C55.9465 373.982 68.4805 370.994 81.1142 368.337C88.8404 366.711 96.4301 364.434 104.079 362.43C118.496 358.654 132.901 354.831 147.326 351.09C156.298 348.762 165.344 346.72 174.274 344.245C185.743 341.067 197.127 337.585 208.547 334.231C222.496 330.136 236.47 326.121 250.386 321.913C258.646 319.416 266.76 316.417 275.044 314.004C285.502 310.958 296.086 308.35 306.576 305.41C314.44 303.206 322.64 302.275 330.262 299.179C332.101 298.432 333.95 297.643 335.645 296.621C338.058 295.165 340.528 294.77 343.217 295.52C345.139 296.055 346.42 297.234 346.757 299.245C347.255 302.207 347.691 305.179 348.151 308.147C348.178 308.326 348.251 308.528 348.2 308.687C346.659 313.898 349.048 318.445 351.138 322.765C355.545 331.877 357.954 341.593 360.363 351.287C362.637 360.44 364.626 369.667 365.683 379.1C366.39 385.425 367.131 391.739 367.719 398.079C368.044 401.582 369.319 404.987 370.019 408.467C371.093 413.823 372.054 419.2 373.029 424.577C373.208 425.558 373.276 426.565 373.311 427.565C373.391 429.865 372.521 431.534 370.337 432.604C369.076 433.221 367.826 434.155 366.973 435.259C365.096 437.694 362.654 438.744 359.717 439.024C351.652 439.798 343.576 440.005 335.483 439.603C334.033 439.53 332.57 439.447 331.128 439.552C330.062 439.631 328.842 439.749 327.998 440.314C326.313 441.44 324.51 441.688 322.589 441.823C321.522 441.897 320.271 441.991 319.463 442.575C317.821 443.764 316.026 444.01 314.131 444.296C312.439 444.551 310.768 445.079 309.147 445.651C301.751 448.266 294.286 450.5 286.329 450.444C285.135 450.435 284.082 450.716 283.079 451.546C280.145 453.973 276.701 455.368 272.956 455.97C268.999 456.606 265.051 457.228 261.466 459.178C261.308 459.265 261.135 459.339 260.959 459.377C252.529 461.193 244.592 464.866 235.936 465.887C233.168 466.213 230.475 467.224 227.759 467.964C223.29 469.183 218.838 470.46 214.37 471.675C206.397 473.845 198.423 476.014 190.436 478.128C185.438 479.451 180.421 480.696 175.399 481.92C172.819 482.551 170.368 483.301 168.272 485.109C166.538 486.605 164.969 486.28 163.673 484.362C163.076 483.474 162.639 482.431 162.347 481.395C161.162 477.185 159.858 473.041 157.875 469.103C156.863 467.094 156.278 464.833 155.752 462.627C153.438 452.887 151.169 443.133 148.988 433.362C148.159 429.644 146.664 426.283 144.419 423.24C143.252 421.658 141.824 420.44 139.76 420.204C139.315 420.155 138.781 420.099 138.465 419.834C134.969 416.897 130.247 416.093 126.858 412.803C124.941 410.943 122.245 409.716 119.134 410.505C117.877 410.823 116.414 410.573 115.091 410.331C110.771 409.539 106.91 410.365 103.13 412.693C94.9456 417.736 89.0906 424.961 83.8176 432.752C81.833 435.684 80.1481 438.825 78.4308 441.927C77.732 443.188 77.1919 444.567 76.7856 445.951C76.2152 447.898 76.4954 449.872 77.9088 451.337C82.8897 456.48 88.2258 461.107 95.8638 462.495ZM326.318 344.121C326.281 343.992 326.245 343.86 326.207 343.731C324.091 344.258 321.987 344.832 319.86 345.291C318.714 345.537 317.525 345.573 316.359 345.726C315.205 345.878 314.033 345.972 312.901 346.24C309.103 347.139 305.328 348.132 301.531 349.035C298.53 349.747 295.504 350.346 292.504 351.061C290.561 351.525 288.658 352.153 286.716 352.622C274.083 355.666 261.49 358.845 249.124 362.884C241.526 365.366 233.928 367.87 226.247 370.071C221.632 371.394 216.858 372.159 212.158 373.174C202.362 375.287 192.967 378.697 183.519 381.949C179.578 383.304 175.578 384.499 171.58 385.679C169.678 386.24 167.74 386.84 165.745 385.782C165.343 385.57 164.673 385.759 164.153 385.883C159.21 387.056 154.26 388.195 149.343 389.469C145.184 390.546 145.086 390.931 146.813 394.868C151.416 405.364 156.494 415.669 159.173 426.923C159.756 429.377 160.923 431.705 161.937 434.04C162.79 436.001 163.465 436.374 165.565 435.984C170.026 435.153 174.529 434.441 178.905 433.276C192.514 429.654 206.105 425.965 219.636 422.064C231.852 418.543 244.003 414.794 256.127 410.972C261.922 409.145 267.58 406.892 273.316 404.877C275.543 404.094 277.803 403.4 280.064 402.722C285.72 401.025 291.337 399.183 297.055 397.726C303.558 396.069 310.142 394.701 316.72 393.354C318.749 392.94 320.892 393.121 322.957 392.827C330.153 391.806 337.339 390.71 344.522 389.602C346.493 389.297 348.477 388.975 350.392 388.429C352.28 387.889 352.809 386.875 352.55 384.907C352.431 384.008 352.181 383.127 351.958 382.245C350.843 377.832 349.781 373.403 348.584 369.01C347.01 363.239 346.589 357.124 343.536 351.783C343.45 351.63 343.413 351.436 343.394 351.258C343.086 348.167 341.507 345.584 340.05 342.962C338.721 340.57 338.056 340.384 335.402 341.247C332.381 342.229 329.348 343.164 326.318 344.121Z" fill="black"/>
<path d="M131.588 258.045C130.257 257.49 129.748 256.865 130.52 255.898C130.706 255.663 131.408 255.536 131.649 255.699C132.757 256.437 131.96 257.142 131.588 258.045Z" fill="black"/>
<path d="M118.994 334.757C119.925 335.257 120.473 335.549 121.051 335.861C120.849 336.176 120.78 336.41 120.673 336.431C119.812 336.589 119.135 336.433 118.994 334.757Z" fill="black"/>
</g>
<defs>
<clipPath id="clip0">
<rect width="879.934" height="473.494" fill="white" transform="translate(281.021 0.236572) rotate(76.0287)"/>
</clipPath>
</defs>
</svg>
