<svg width="140" height="92" viewBox="0 0 140 92" fill="none" xmlns="http://www.w3.org/2000/svg">
<g clip-path="url(#clip0)">
<g clip-path="url(#clip1)">
<path d="M74.0745 54.4924C73.8685 54.5742 73.749 54.616 73.6352 54.6681C72.535 55.1699 71.4387 55.6798 70.3346 56.1724C70.0628 56.2939 69.8386 56.4498 69.6599 56.6871C69.3318 57.1234 68.9972 57.5553 68.6523 57.9787C68.4774 58.1931 68.4086 58.4188 68.4307 58.6936C68.4887 59.408 68.545 60.1229 68.5744 60.8391C68.5943 61.3236 68.5653 61.8103 68.5605 62.2961C68.5536 62.998 68.5354 63.7005 68.5462 64.4024C68.5748 66.2948 68.6142 68.1867 68.6536 70.079C68.6609 70.4227 68.6969 70.7655 68.7055 71.1092C68.7111 71.3361 68.6804 71.5644 68.6865 71.7914C68.6969 72.1617 68.7168 72.5321 68.7475 72.9007C68.7665 73.1286 68.8276 73.3534 68.844 73.5816C68.8683 73.9171 68.7445 74.0644 68.4056 74.0859C68.2074 74.0984 68.0009 74.079 67.807 74.0355C67.4911 73.9645 67.1859 73.9697 66.8652 74.017C66.1043 74.1286 65.3482 74.1475 64.6112 73.8426C64.4073 73.7582 64.1623 73.7586 63.9347 73.75C63.6759 73.7401 63.4157 73.7763 63.1569 73.7707C62.6899 73.7599 62.5276 73.6673 62.4099 73.2117C62.2995 72.7858 62.226 72.34 62.2169 71.9012C62.1857 70.3671 62.1935 68.8327 62.1783 67.2982C62.1632 65.7926 62.226 64.2797 62.0944 62.784C61.9442 61.0756 62.0199 59.3753 62.0199 57.6712C62.0199 56.9834 61.9996 56.2956 61.9814 55.6083C61.9697 55.1733 61.8676 54.7603 61.6832 54.3624C61.4707 53.9046 61.6153 53.5579 62.0814 53.3525C62.393 53.2155 62.7176 53.1539 63.0513 53.2521C64.1558 53.5786 65.2972 53.6104 66.4341 53.6711C66.6458 53.6823 66.8773 53.6668 67.0712 53.5919C67.9347 53.2577 68.767 52.8619 69.443 52.2082C69.9702 51.6983 70.4986 51.1892 71.0163 50.6698C71.1877 50.4976 71.3482 50.3072 71.4781 50.1027C72.4368 48.594 73.2219 47.0014 73.785 45.3042C74.0317 44.5609 74.0715 43.7844 74.1364 43.0135C74.2719 41.411 74.3013 39.8063 74.213 38.2C74.194 37.8567 74.2074 37.5118 74.2056 37.1677C74.1857 33.0815 74.1701 28.9954 74.1442 24.9092C74.1347 23.4475 74.145 21.9837 74.068 20.525C73.9403 18.1056 73.7443 15.69 73.5889 13.2722C73.556 12.758 73.5716 12.2404 73.5655 11.7244C73.5556 10.8644 73.5383 10.0048 73.5395 9.14474C73.54 8.80193 73.5833 8.45912 73.6066 8.11631C73.6521 7.44534 73.7547 6.77178 73.73 6.10338C73.6811 4.77349 73.6819 3.43499 73.3487 2.12964C73.3141 1.99441 73.3084 1.84282 73.3283 1.70415C73.3902 1.27348 73.727 1.00819 74.1589 1.08485C74.9094 1.21879 75.6729 1.29674 76.3926 1.57968C76.5722 1.65031 76.7865 1.65979 76.9838 1.65591C77.3794 1.64773 77.7482 1.71448 78.1217 1.85832C78.5363 2.01767 78.9786 2.1051 79.4084 2.22568C80.0788 2.41345 80.2121 2.59218 80.2277 3.28985C80.2507 4.32216 80.2714 5.35403 80.3056 6.3859C80.3372 7.33379 80.297 8.27652 80.1922 9.21967C80.1546 9.55904 80.2083 9.90744 80.1831 10.2494C80.1433 10.7925 80.078 11.3338 80.0126 11.8743C79.9421 12.4604 79.9061 13.0444 80.0239 13.6297C80.0546 13.783 80.0529 13.9432 80.0589 14.1008C80.1433 16.2494 80.229 18.3984 80.3069 20.5474C80.3177 20.8506 80.4398 21.0677 80.7047 21.2107C80.7679 21.2451 80.8285 21.2847 80.8925 21.3175C81.1669 21.4566 81.2872 21.6715 81.2617 21.9824C81.1622 23.2072 81.4223 24.4096 81.5114 25.6224C81.5417 26.032 81.653 26.4441 81.7837 26.836C82.4619 28.8666 83.3037 30.8309 84.2771 32.7383C84.6766 33.5208 85.1717 34.2426 85.7789 34.886C85.9754 35.0944 86.1373 35.3352 86.3221 35.5552C86.4186 35.6702 86.5303 35.7723 86.6354 35.8804C86.6657 35.8692 86.696 35.858 86.7263 35.8468C86.7385 35.5393 86.7748 35.2305 86.7584 34.9247C86.651 32.9204 86.5307 30.9166 86.4186 28.9127C86.3996 28.5694 86.3922 28.2249 86.3896 27.8812C86.3823 26.8067 86.3853 25.7322 86.3736 24.6577C86.3619 23.5828 86.3619 22.5065 86.3117 21.4329C86.2524 20.1732 86.136 18.9161 86.062 17.6568C86.0273 17.0711 86.039 16.4828 86.0191 15.8958C86.0109 15.6538 85.972 15.4126 85.9525 15.1706C85.8495 13.87 85.6984 12.5707 85.6625 11.2683C85.6339 10.2257 85.7456 9.17919 85.7962 8.1344C85.7988 8.07712 85.8109 8.02027 85.814 7.96343C85.8962 6.41863 85.9741 4.87384 86.0607 3.32904C86.0871 2.85704 86.1412 2.38675 86.1754 1.91517C86.2026 1.53834 86.4125 1.31698 86.7566 1.19295C87.2327 1.02068 87.7127 0.884592 88.2277 0.873395C88.5723 0.866074 88.9146 0.782525 89.2591 0.77305C89.7032 0.760561 90.1481 0.789846 90.5926 0.797167C90.9068 0.802335 91.2228 0.820423 91.5344 0.794583C91.717 0.77951 91.8317 0.814394 91.933 0.966419C92.0797 1.18778 92.1663 1.41862 92.1814 1.68692C92.2282 2.52069 92.1749 3.34756 92.0685 4.17444C92.0395 4.39838 92.0784 4.63008 92.0754 4.85833C92.0641 5.68865 92.0629 6.51941 92.0287 7.34887C92.0044 7.93543 91.8906 8.52027 91.8915 9.10555C91.8936 10.6671 91.9088 12.23 91.9724 13.7903C92.0161 14.8631 92.1706 15.9312 92.2386 17.0035C92.3221 18.3192 92.3684 19.6374 92.4273 20.9549C92.4814 22.1577 92.5524 23.3605 92.5766 24.5643C92.6008 25.7537 92.5956 26.9445 92.5684 28.1336C92.5381 29.4553 92.6147 30.7671 92.7367 32.0832C92.8384 33.1801 92.8389 34.2878 92.8566 35.3912C92.8973 37.9282 92.9068 40.4661 92.9575 43.0032C92.9817 44.2202 93.0821 45.436 93.1293 46.6526C93.1756 47.8559 93.2003 49.06 93.2297 50.2642C93.234 50.4351 93.241 50.6147 93.1977 50.7771C92.964 51.6578 93.1241 52.5355 93.1951 53.4145C93.2089 53.5846 93.276 53.7633 93.2431 53.9226C93.0795 54.709 93.2704 55.4959 93.2158 56.2814C93.2102 56.3649 93.2193 56.4584 93.2526 56.5338C93.4509 56.9804 93.4504 57.4528 93.4643 57.927C93.5136 59.6178 93.5694 61.3085 93.6231 62.9989C93.6253 63.0704 93.6335 63.1423 93.6322 63.2138C93.5993 64.9076 93.7763 66.5937 93.8153 68.2836C93.8473 69.6626 94.0659 71.0213 94.1377 72.3939C94.1438 72.5084 94.1602 72.6234 94.1533 72.7367C94.1325 73.0855 93.9715 73.2573 93.6279 73.3116C92.7168 73.4546 91.8066 73.6014 90.8943 73.7358C90.7116 73.7629 90.519 73.7634 90.3355 73.741C89.8863 73.6863 89.4439 73.7052 89.0025 73.8013C88.8618 73.8318 88.7185 73.8521 88.5753 73.8684C88.0975 73.924 87.791 73.691 87.746 73.2164C87.7149 72.8887 87.7136 72.5579 87.7002 72.2281C87.6257 70.4236 87.5474 68.6191 87.479 66.8142C87.3924 64.5364 87.3028 62.2586 87.2349 59.9804C87.1046 55.6238 87.0012 51.2667 86.8601 46.9106C86.8029 45.1487 86.97 45.6961 86.0243 44.2409C85.1323 42.8679 84.2576 41.4808 83.2933 40.1595C82.5502 39.1414 81.6811 38.2137 80.8644 37.2486C80.783 37.1521 80.6778 37.0755 80.5424 36.9523C80.5117 37.0854 80.4744 37.1732 80.474 37.2615C80.4714 37.9213 80.4762 38.5807 80.4788 39.2404C80.4788 39.2693 80.4731 39.3007 80.4827 39.3261C80.835 40.2262 80.4935 41.1375 80.5233 42.0432C80.5593 43.1457 80.5186 44.2504 80.551 45.3533C80.567 45.8976 80.6272 46.4373 80.5073 46.9773C80.4796 47.1014 80.4779 47.2357 80.4887 47.3632C80.5722 48.3847 80.4013 49.3938 80.3532 50.4089C80.3411 50.6647 80.3667 50.9222 80.3749 51.1785C80.3801 51.3357 80.4104 51.4976 80.3853 51.65C80.2134 52.6798 80.3208 53.7103 80.3645 54.7405C80.4848 57.5626 80.6103 60.3843 80.7341 63.2061C80.7982 64.6686 81.0012 66.1165 81.1903 67.567C81.3478 68.775 81.4314 69.9933 81.6097 71.1983C81.7166 71.9218 81.8101 72.6423 81.8386 73.3719C81.8421 73.4576 81.8629 73.5433 81.8594 73.6286C81.849 73.9051 81.6902 74.0773 81.4504 73.9804C81.0241 73.8082 80.6203 73.8262 80.1728 73.859C79.8672 73.8814 79.5621 73.8857 79.2517 73.9352C78.9613 73.9817 78.6432 73.9692 78.3567 73.9025C77.8031 73.7737 77.2491 73.7315 76.6839 73.7345C75.9113 73.7388 75.5543 73.4197 75.453 72.6484C75.4045 72.2793 75.3889 71.9059 75.3474 71.5355C75.1825 70.0687 74.9934 68.6044 74.8505 67.1359C74.709 65.6807 74.583 64.2229 74.5012 62.7633C74.361 60.2586 74.261 57.7513 74.1416 55.2452C74.1325 55.0191 74.1026 54.7948 74.0745 54.4924Z" fill="#515151"/>
<path d="M124.806 34.3196C124.788 34.5789 124.764 34.7623 124.765 34.9454C124.778 36.479 124.807 38.0126 124.81 39.5462C124.817 41.8829 124.808 44.2197 124.802 46.5569C124.801 46.8433 124.768 47.1302 124.77 47.4166C124.774 48.0169 124.791 48.6177 124.804 49.218C124.806 49.3184 124.823 49.4183 124.825 49.5182C124.85 51.0225 124.873 52.5268 124.898 54.0311C124.903 54.2749 124.893 54.5225 124.935 54.7607C125.046 55.3877 125.008 56.0152 124.997 56.6457C124.981 57.7056 124.999 58.7663 125.003 59.8266C125.004 59.8834 125.003 59.9437 125.02 59.9971C125.185 60.5213 125.094 61.0471 125.052 61.576C125.023 61.9592 125.022 62.3473 125.043 62.7314C125.097 63.7332 125.11 64.7422 125.254 65.7319C125.416 66.8447 125.207 67.9696 125.43 69.0691C125.574 69.7793 125.575 70.492 125.572 71.2069C125.571 71.5071 125.537 71.8077 125.503 72.1066C125.485 72.262 125.453 72.4205 125.397 72.5661C125.214 73.0437 124.913 73.1109 124.519 72.7741C124.494 72.7836 124.458 72.7857 124.447 72.8034C124.166 73.2517 123.784 73.5398 123.242 73.6208C123.101 73.6419 122.962 73.7638 122.849 73.868C122.425 74.2582 121.937 74.3624 121.406 74.1673C120.929 73.992 120.453 73.9864 119.959 74.0458C119.722 74.0743 119.468 74.0536 119.234 74.0023C118.965 73.9434 118.916 73.84 118.926 73.5665C118.928 73.5092 118.932 73.4515 118.945 73.3955C119.24 72.0079 119.056 70.6268 118.889 69.2452C118.867 69.0605 118.835 68.8753 118.832 68.6901C118.76 65.035 118.683 61.38 118.628 57.7249C118.605 56.2344 118.649 54.743 118.632 53.2521C118.612 51.4889 118.534 49.7266 118.527 47.9635C118.516 44.7947 118.564 41.6258 118.541 38.4574C118.514 34.5289 118.445 30.6004 118.384 26.6723C118.369 25.7408 118.314 24.8101 118.279 23.879C118.274 23.7502 118.253 23.6189 118.271 23.4927C118.407 22.5073 118.292 21.5185 118.317 20.5314C118.333 19.9182 118.249 19.3028 118.229 18.6878C118.164 16.7248 118.113 14.7618 118.048 12.7989C118.003 11.4526 117.916 10.1068 117.905 8.76008C117.899 7.98919 118.016 7.2183 118.064 6.44655C118.157 4.93018 118.26 3.41381 118.108 1.89399C118.007 0.875041 118.852 0.1231 119.882 0.290198C120.065 0.319914 120.253 0.318622 120.437 0.339724C120.994 0.403463 121.551 0.474953 122.108 0.536107C122.479 0.577021 122.852 0.63473 123.223 0.633438C123.734 0.631715 124.15 0.814747 124.507 1.1567C124.742 1.38107 124.826 1.66273 124.793 1.98013C124.759 2.29365 124.709 2.60588 124.685 2.92027C124.638 3.50554 124.602 4.09168 124.567 4.67781C124.508 5.66446 124.466 6.65241 124.394 7.6382C124.332 8.48058 124.236 9.31521 124.304 10.1679C124.382 11.1382 124.352 12.1167 124.379 13.0913C124.44 15.2554 124.504 17.419 124.576 19.5827C124.594 20.1413 124.642 20.699 124.686 21.2567C124.761 22.2166 124.77 23.177 124.673 24.1348C124.612 24.7343 124.778 25.2356 125.111 25.7481C125.728 26.6977 126.261 27.702 126.832 28.6813C126.998 28.9664 127.152 29.2636 127.353 29.5224C128.82 31.4057 130.362 33.2249 132.093 34.8782C132.291 35.0668 132.501 35.2425 132.707 35.4221C132.727 35.4398 132.758 35.4449 132.845 35.4824C132.85 35.3153 132.861 35.1689 132.859 35.0229C132.808 31.5677 132.747 28.1129 132.709 24.6576C132.686 22.593 132.747 20.5267 132.684 18.4638C132.604 15.8419 132.43 13.2231 132.311 10.6025C132.266 9.5861 132.25 8.56757 132.243 7.54991C132.233 5.79754 132.108 4.05464 131.827 2.32466C131.781 2.04257 131.703 1.76479 131.626 1.48917C131.388 0.646358 131.828 0.00423634 132.713 0.00122169C133.577 -0.0013623 134.44 0.0774494 135.305 0.114917C135.98 0.144202 136.657 0.200189 137.332 0.178656C137.864 0.16186 138.318 0.35652 138.785 0.540414C138.947 0.604583 139.006 0.746702 139.013 0.921983C139.041 1.65196 139.079 2.38151 139.109 3.11148C139.134 3.69848 139.143 4.28677 139.179 4.8729C139.209 5.3729 139.248 5.87377 139.319 6.36903C139.385 6.82812 139.388 7.27601 139.325 7.73682C139.243 8.33243 139.203 8.9345 139.168 9.53528C139.13 10.1929 139.104 10.8523 139.102 11.5112C139.101 11.9108 139.164 12.3105 139.184 12.7106C139.242 13.8411 139.249 14.9763 139.36 16.1016C139.468 17.1968 139.285 18.2752 139.291 19.363C139.296 20.0926 139.22 20.8221 139.206 21.5525C139.197 21.9522 139.256 22.3532 139.258 22.7532C139.267 24.9901 139.269 27.227 139.271 29.4634C139.271 29.6495 139.246 29.8351 139.242 30.0216C139.23 30.5074 139.194 30.9949 139.221 31.4785C139.28 32.5233 139.4 33.5655 139.247 34.6116C139.237 34.6822 139.221 34.7597 139.239 34.8252C139.458 35.5883 139.31 36.3653 139.326 37.1349C139.358 38.7834 139.362 40.432 139.372 42.081C139.374 42.4966 139.347 42.9122 139.346 43.3283C139.344 43.8429 139.355 44.3575 139.36 44.8722C139.361 44.9867 139.37 45.1035 139.352 45.2159C139.116 46.7141 139.294 48.2219 139.247 49.7245C139.189 51.5871 139.165 53.451 139.127 55.3145C139.123 55.5152 139.119 55.7159 139.113 55.9166C139.073 57.2056 139.031 58.4945 138.992 59.784C138.967 60.585 138.898 61.3847 139.06 62.1845C139.115 62.458 139.084 62.7594 139.041 63.0398C138.892 63.9946 138.868 64.9515 138.93 65.9136C138.939 66.0544 138.939 66.2069 138.896 66.3382C138.756 66.762 138.79 67.1828 138.844 67.6139C138.881 67.9084 138.857 68.2108 138.863 68.5092C138.868 68.7375 138.856 68.9687 138.891 69.1927C138.959 69.6346 139.019 70.0704 138.894 70.5135C138.827 70.7491 138.901 70.9713 139.04 71.1638C139.209 71.3964 139.261 71.6522 139.264 71.933C139.267 72.262 139.297 72.5911 139.316 72.9197C139.326 73.0915 139.345 73.2629 139.345 73.4347C139.346 73.9735 139.232 74.0562 138.694 73.9593C138.455 73.9162 138.208 73.9149 137.965 73.8878C137.825 73.8719 137.677 73.8628 137.548 73.8137C137.304 73.722 137.068 73.7035 136.836 73.8232C136.59 73.9507 136.337 73.9434 136.077 73.8947C135.978 73.8762 135.872 73.8671 135.783 73.8245C135.136 73.5131 134.456 73.4972 133.756 73.5553C133.535 73.5738 133.29 73.5269 133.084 73.4429C132.562 73.231 132.412 72.7866 132.385 72.2612C132.237 69.3378 132.241 66.4145 132.347 63.4894C132.386 62.4153 132.366 61.3395 132.396 60.265C132.413 59.6927 132.501 59.1225 132.522 58.5501C132.585 56.8025 132.641 55.0544 132.68 53.3059C132.699 52.4605 132.642 51.6129 132.678 50.7684C132.704 50.1263 132.589 49.5294 132.419 48.9148C132.269 48.3696 132.265 47.7835 132.206 47.2141C132.187 47.0294 132.19 46.8416 132.195 46.6556C132.218 45.6952 132.024 44.7774 131.677 43.8838C131.553 43.5643 131.485 43.2236 131.376 42.8976C131.244 42.504 131.133 42.097 130.948 41.7283C130.575 40.985 130.165 40.2593 129.755 39.535C129.622 39.299 129.46 39.0729 129.277 38.8717C127.945 37.4019 126.601 35.9424 125.159 34.5759C125.071 34.4914 124.961 34.4303 124.806 34.3196Z" fill="#515151"/>
<path d="M0.870411 69.7143C0.898544 69.9042 0.943988 70.0932 0.951779 70.284C0.977315 70.8999 0.987269 71.5166 1.00804 72.1329C1.0141 72.315 0.993761 72.511 1.18939 72.6583C1.37117 72.5597 1.35559 72.3861 1.34174 72.2225C1.32746 72.0515 1.27941 71.8822 1.27552 71.7117C1.27249 71.5726 1.26686 71.396 1.3439 71.3004C1.52525 71.0752 1.52135 70.8267 1.53044 70.57C1.55035 69.9968 1.56896 69.4236 1.59839 68.8508C1.61571 68.5149 1.60445 68.1919 1.3426 67.9249C1.40493 67.8409 1.45081 67.769 1.50664 67.7056C1.68366 67.505 1.71265 67.2879 1.5365 67.0842C1.33568 66.8525 1.36771 66.6621 1.55858 66.4425C1.73992 66.2341 1.73646 65.9851 1.57372 65.7668C1.42354 65.5652 1.38199 65.368 1.44648 65.1242C1.48197 64.9912 1.43566 64.8387 1.44864 64.697C1.46509 64.5166 1.50274 64.3383 1.53304 64.1591C1.59017 63.8219 1.68669 63.4856 1.69015 63.1479C1.69188 62.9735 1.52958 62.7974 1.43133 62.6014C1.52482 62.4912 1.62479 62.3732 1.74771 62.2285C1.66548 62.0902 1.57978 61.9472 1.49539 61.8055C1.5629 61.5738 1.70573 61.3335 1.6776 61.1152C1.64297 60.846 1.46639 60.5945 1.30235 60.3391C1.10802 60.8783 1.13442 61.4481 1.00285 62.0088C0.821937 61.9386 0.863053 61.7948 0.859158 61.6845C0.802893 60.0816 0.733644 58.4787 0.70378 56.8753C0.670454 55.0979 0.666991 53.3202 0.664395 51.5424C0.660932 49.0622 0.677379 46.582 0.672185 44.1018C0.66829 42.2525 0.624144 40.4028 0.6328 38.5535C0.648814 35.1844 0.745763 31.8145 0.707675 28.4463C0.667857 24.9204 0.789909 21.3881 0.515076 17.8696C0.347579 15.7214 0.319447 13.5745 0.257988 11.4255C0.219035 10.0646 0.141563 8.70458 0.0498077 7.34584C-0.0324258 6.12619 -0.00559169 4.91043 0.0775074 3.69337C0.0948197 3.43669 0.100013 3.17571 0.0723137 2.92076C0.0389875 2.61843 0.131608 2.38113 0.366623 2.20327C0.577833 2.04392 0.688632 1.86003 0.667857 1.58354C0.64362 1.26141 0.817609 1.04134 1.10932 0.911276C1.51919 0.728674 1.91867 0.571912 2.39692 0.698097C2.63151 0.760113 2.92019 0.714032 3.1604 0.640819C3.69318 0.478027 4.21212 0.500422 4.73625 0.647279C5.32314 0.811793 5.91349 0.898787 6.53024 0.843662C6.79295 0.819975 7.06649 0.926349 7.33569 0.968124C7.66116 1.01851 7.9875 1.10421 8.3134 1.10335C9.37941 1.09905 10.4458 1.07536 11.511 1.03229C11.9706 1.01377 12.4281 0.934963 12.8852 0.872947C13.9624 0.726521 15.0453 0.751069 16.1256 0.788106C17.0717 0.820406 17.9702 1.10077 18.8466 1.4397C19.6616 1.75495 20.4978 1.90999 21.3738 1.84453C21.8659 1.80792 22.1563 2.11412 22.1126 2.61757C22.0706 3.10293 21.9953 3.58613 21.9689 4.07235C21.9079 5.20242 21.8655 6.33334 21.8196 7.46427C21.7867 8.27995 21.7387 9.09563 21.7343 9.91131C21.7222 12.09 21.7257 14.2688 21.733 16.4475C21.7348 16.9919 21.8032 17.5367 21.7915 18.0802C21.753 19.8997 21.682 21.7188 21.6452 23.5388C21.6326 24.1667 21.6837 24.7959 21.7062 25.4243C21.7079 25.4669 21.7209 25.51 21.7183 25.5526C21.6772 26.2529 21.6352 26.9531 21.5915 27.6534C21.5833 27.7822 21.5543 27.9101 21.5556 28.0384C21.5703 29.5849 21.4734 31.1336 21.6642 32.6762C21.6971 32.9433 21.7071 33.2232 21.6651 33.4872C21.6049 33.8666 21.379 34.0169 21.0128 33.911C20.6766 33.8136 20.3649 33.855 20.0347 33.9114C19.5383 33.9967 19.0354 34.0449 18.535 34.1065C17.9486 34.1788 17.3625 34.2572 16.7748 34.3166C16.345 34.3601 15.9131 34.392 15.4816 34.4036C14.445 34.4316 13.5045 34.777 12.6108 35.2611C12.4164 35.3666 12.2511 35.5488 12.1113 35.7262C11.7737 36.1543 11.4642 36.6048 11.1331 37.038C10.8999 37.3434 10.8272 37.6814 10.8795 38.0518C10.9328 38.4291 11.1821 38.6732 11.566 38.7086C11.7369 38.7245 11.9122 38.7124 12.084 38.6987C13.6577 38.5712 15.2214 38.5936 16.7731 38.9368C17.1487 39.0199 17.5456 39.0341 17.9326 39.0316C18.435 39.0281 18.9077 39.097 19.3418 39.3627C19.6785 39.5686 20.0403 39.6186 20.4225 39.5062C20.519 39.4777 20.6173 39.4493 20.7164 39.4351C21.2764 39.3546 21.7304 39.7292 21.7066 40.2882C21.6911 40.6582 21.6028 41.0251 21.5608 41.3946C21.508 41.8623 21.4102 42.3343 21.4335 42.799C21.5872 45.8916 21.8019 48.9816 21.9295 52.0755C22.0512 55.026 22.1044 57.9795 22.162 60.9321C22.2182 63.8133 22.2282 66.6953 22.2879 69.576C22.3126 70.7776 22.416 71.9774 22.4783 73.1781C22.4978 73.5502 22.5073 73.9231 22.5056 74.2957C22.5043 74.5653 22.39 74.6815 22.1126 74.7104C21.9858 74.7233 21.8542 74.7091 21.7265 74.6923C21.3846 74.6471 21.0449 74.5679 20.7021 74.5515C20.3606 74.5351 20.0144 74.5614 19.6742 74.601C19.2063 74.6557 18.7631 74.6307 18.3204 74.4387C18.078 74.3336 17.7954 74.3202 17.53 74.2677C17.4184 74.2457 17.2907 74.2573 17.1959 74.2065C16.9137 74.0545 16.6194 74.0627 16.3126 74.0713C15.1604 74.104 14.0079 74.1182 12.8553 74.1437C11.2552 74.179 9.65554 74.2186 8.05545 74.2556C7.89704 74.2591 7.73344 74.2789 7.58066 74.2496C6.70726 74.0821 5.82476 74.1936 4.94876 74.1445C4.30474 74.1088 3.64774 74.045 3.03012 73.8741C2.60467 73.7561 2.23462 73.4425 1.7542 73.4473C1.69404 73.4477 1.61571 73.3883 1.57545 73.3349C1.42354 73.132 1.22099 73.1359 0.995925 73.1462C0.568311 73.1656 0.47872 73.0747 0.493868 72.6557C0.522001 71.8676 0.554894 71.0799 0.599473 70.2926C0.610294 70.1014 0.675215 69.9128 0.715466 69.7233C0.769134 69.7199 0.819773 69.7173 0.870411 69.7143ZM15.7971 72.0566C15.8066 71.9063 15.8192 71.8073 15.8187 71.7082C15.8131 70.7776 15.8464 69.8439 15.7845 68.9167C15.7339 68.1578 15.7469 67.4055 15.7547 66.6479C15.7668 65.4735 15.6971 64.2978 15.6512 63.1234C15.6382 62.7952 15.5738 62.4688 15.5551 62.1406C15.5344 61.7719 15.5218 61.4011 15.537 61.0325C15.5612 60.4326 15.6183 59.834 15.646 59.234C15.6633 58.8619 15.6607 58.4886 15.6499 58.116C15.6395 57.7444 15.6443 57.3662 15.5772 57.0032C15.4586 56.3637 15.4236 55.7237 15.4379 55.0768C15.4837 52.9679 15.4149 50.8615 15.2643 48.7577C15.205 47.9291 15.0812 47.1035 15.0462 46.2745C14.9752 44.5983 14.9458 42.9209 14.8981 41.2439C14.8852 40.7822 14.7921 40.7 14.3242 40.7254C14.2667 40.7284 14.2095 40.7383 14.1524 40.7452C12.0905 40.9932 10.0386 40.9006 7.9914 40.5837C7.7434 40.5453 7.48847 40.5527 7.21797 40.5376C7.20239 40.7262 7.18724 40.8524 7.18248 40.9786C7.14526 41.9674 7.1115 42.9562 7.07211 43.945C7.06519 44.116 7.06908 44.2986 7.00936 44.4536C6.87821 44.7964 6.89683 45.1246 7.01238 45.4618C7.10804 45.7409 7.12145 46.0182 7.00589 46.3025C6.96694 46.3981 6.96304 46.5355 7.002 46.6298C7.12405 46.9261 7.09808 47.2155 7.03143 47.5157C6.96304 47.8236 6.89077 48.1337 6.86739 48.4468C6.85095 48.6681 6.90635 48.8964 6.94227 49.1194C6.97603 49.3275 7.0587 49.532 7.06389 49.7396C7.10587 51.3309 7.1379 52.9222 7.1643 54.5135C7.17209 54.9864 7.18031 55.4623 7.13876 55.9321C7.00243 57.4683 7.19633 58.9972 7.21797 60.5299C7.22576 61.0596 7.29458 61.5915 7.26255 62.1182C7.18118 63.4666 7.20109 64.812 7.26558 66.1596C7.27856 66.4304 7.25216 66.7035 7.23744 66.9748C7.21754 67.3465 7.1669 67.7181 7.17296 68.0894C7.18637 68.8633 7.21234 69.638 7.26385 70.4102C7.30193 70.9817 7.38157 71.551 7.45515 72.12C7.4954 72.4318 7.56075 72.4908 7.83385 72.4666C8.62329 72.3969 9.41101 72.3107 10.2004 72.2414C11.7062 72.1092 13.2076 71.8792 14.728 72.0515C15.0656 72.0894 15.4123 72.0566 15.7971 72.0566ZM16.4606 3.10207C16.1074 3.07278 15.8096 3.02412 15.5127 3.02842C14.4195 3.04436 13.3266 3.07795 12.2338 3.10594C12.1909 3.10724 12.1468 3.11068 12.1048 3.12016C11.1946 3.32687 10.2749 3.30706 9.35084 3.25883C8.86394 3.23342 8.37443 3.25452 7.82909 3.25452C7.70012 3.86262 7.52959 4.44273 7.4625 5.03446C7.35344 5.99958 7.14136 6.95221 7.11236 7.92767C7.09159 8.62879 7.02017 9.32819 6.99724 10.0293C6.96824 10.9169 6.96348 11.8054 6.95093 12.6934C6.93448 13.8932 6.92063 15.0935 6.90635 16.2933C6.90591 16.336 6.9163 16.3795 6.91414 16.4221C6.8899 16.9501 6.88903 17.4802 6.8319 18.0044C6.78343 18.4492 6.73885 18.8855 6.84402 19.3278C6.87648 19.4647 6.87129 19.6112 6.87735 19.7533C6.88471 19.9363 6.87951 20.1198 6.89077 20.3024C6.92885 20.9393 7.11539 21.5724 6.91111 22.2154C6.8648 22.3605 6.88947 22.5285 6.88514 22.6857C6.87302 23.1586 6.87432 23.6319 6.84662 24.1034C6.83104 24.3713 6.85441 24.5922 7.13314 24.6534C7.11929 24.8313 7.09072 24.9772 7.10068 25.1202C7.11626 25.3442 7.18854 25.5673 7.18161 25.7895C7.163 26.4049 7.08466 27.0208 7.28635 27.6237C7.30843 27.6896 7.31448 27.7667 7.30713 27.836C7.22965 28.5763 7.1366 29.3153 7.07168 30.0565C7.03705 30.451 6.93794 30.8347 6.99031 31.2451C7.04701 31.6926 7.0007 32.1526 7.002 32.6073C7.00243 32.7787 6.99334 32.9532 7.02018 33.1207C7.05826 33.3576 7.15218 33.4135 7.38157 33.3584C7.50708 33.3283 7.62654 33.2749 7.74859 33.2305C8.46878 32.9682 9.20672 32.783 9.96846 32.6849C10.6255 32.6 11.2872 32.5328 11.9351 32.4002C12.6852 32.2469 13.4309 32.0983 14.2 32.0849C14.429 32.0811 14.6592 32.0389 14.8856 31.9967C15.2163 31.9346 15.3032 31.8515 15.3171 31.5109C15.3435 30.8532 15.3634 30.1939 15.3513 29.5363C15.3426 29.0772 15.3374 28.6263 15.4184 28.1685C15.4872 27.777 15.4729 27.3705 15.4863 26.9699C15.4954 26.6982 15.4759 26.4247 15.4928 26.1534C15.5902 24.5944 15.6945 23.0358 15.7962 21.4768C15.8486 20.6762 15.9659 19.873 15.9339 19.0754C15.8958 18.1168 15.8875 17.1607 15.9066 16.2029C15.9165 15.7016 15.9126 15.1999 15.9131 14.6981C15.9144 13.7098 15.9165 12.721 15.9139 11.7326C15.9105 10.4436 15.862 9.1542 16.0169 7.86866C16.0611 7.50131 16.0308 7.12534 16.0628 6.7554C16.1074 6.24291 16.1308 5.72137 16.2494 5.22395C16.4156 4.53274 16.3312 3.83506 16.4606 3.10207ZM1.47894 51.3878C1.22834 51.0949 1.25994 50.7857 1.41229 50.4636C1.51486 50.2461 1.51443 50.0333 1.38891 49.8068C1.31923 49.681 1.30408 49.507 1.31534 49.3585C1.3768 48.5208 1.51183 47.6858 1.35819 46.8438C1.34347 46.762 1.3742 46.6733 1.37247 46.588C1.36727 46.3486 1.38718 46.1026 1.33698 45.8722C1.29456 45.6767 1.2911 45.5152 1.38891 45.3395C1.4811 45.1728 1.50274 44.9997 1.3149 44.8343C1.06907 45.1013 0.953943 45.3615 1.00545 45.7107C1.05089 46.0191 1.03964 46.3378 1.02968 46.6513C1.018 47.0217 0.963032 47.3912 0.960002 47.7611C0.956107 48.2336 0.996791 48.706 0.999388 49.1789C1.00675 50.6406 0.999388 52.1018 1.00978 53.5635C1.01497 54.293 1.0431 55.0226 1.06734 55.7521C1.07253 55.9153 1.10413 56.0777 1.1236 56.2405C1.15477 56.2487 1.18593 56.2573 1.21709 56.2655C1.32443 56.1242 1.43133 55.9834 1.47764 55.9222C1.42657 55.6057 1.38805 55.3779 1.35256 55.1496C1.2937 54.7698 1.41056 54.4132 1.49062 54.0497C1.54516 53.8008 1.62566 53.5351 1.58714 53.2939C1.52265 52.8895 1.39281 52.5045 1.37593 52.0803C1.36511 51.8309 1.34087 51.6156 1.47894 51.3878ZM1.30798 43.1013C0.92581 43.3873 0.906334 43.7895 1.22748 44.1995C1.49755 43.9265 1.53347 43.5174 1.30798 43.1013ZM1.25604 56.8172C1.01237 57.1457 1.02492 57.2517 1.25604 57.4606C1.25604 57.2487 1.25604 57.0329 1.25604 56.8172Z" fill="#515151"/>
<path d="M31.2338 34.3778C31.4355 34.2719 31.5921 34.2279 31.6934 34.1285C31.9159 33.9101 32.163 33.712 32.266 33.3881C32.3517 33.119 32.614 33.0522 32.8663 33.0535C33.1537 33.0548 33.4415 33.0897 33.7276 33.1229C33.9864 33.1526 34.205 33.1341 34.3595 32.8761C34.4811 32.6728 34.7062 32.6276 34.9313 32.644C35.0888 32.6556 35.2528 32.6707 35.3991 32.7241C36.1565 33.0001 36.923 33.2568 37.6095 33.6961C38.2275 34.0914 38.8577 34.4678 39.4775 34.861C39.683 34.9915 39.8964 35.1237 40.0644 35.2956C40.4006 35.6397 40.3284 36.097 39.8917 36.2818C39.574 36.4162 39.3256 36.6177 39.0888 36.8472C38.4089 37.507 37.7294 38.1668 37.0572 38.8339C36.9468 38.9433 36.8655 39.0841 36.7837 39.2189C36.5824 39.5505 36.3976 39.8916 36.1907 40.2194C35.9484 40.6035 35.7255 40.6629 35.3147 40.4993C34.2184 40.0626 33.1204 39.6285 32.0215 39.1978C31.8384 39.1259 31.6454 39.0781 31.3831 38.9963C31.3831 39.5165 31.3688 39.9734 31.3857 40.4291C31.4428 41.9765 31.5108 43.5234 31.5748 45.0704C31.6952 47.9778 31.8146 50.8856 31.9375 53.793C31.9752 54.6811 32.0055 55.57 32.0713 56.4558C32.1115 56.9976 32.2163 57.5342 32.2842 58.0738C32.3236 58.3857 32.3682 58.6992 32.3734 59.0123C32.395 60.259 32.3734 61.5075 32.5469 62.7479C32.5608 62.8469 32.5755 62.9494 32.5655 63.048C32.4807 63.9076 32.6123 64.7629 32.6157 65.6208C32.6183 66.3805 32.6244 67.1411 32.6651 67.8995C32.7309 69.1178 32.7547 70.3344 32.6828 71.5532C32.6434 72.2251 32.8962 72.483 33.5709 72.4486C34.4491 72.4034 35.3182 72.3392 36.1297 71.918C36.8862 71.5252 37.4835 70.9951 37.8735 70.2457C38.3842 69.2642 38.6629 68.2203 38.6789 67.1105C38.6807 66.9981 38.6906 66.8758 38.7356 66.7754C38.9066 66.3947 38.9252 65.9981 38.8858 65.5941C38.8218 64.933 38.8378 64.2814 38.9914 63.6281C39.0624 63.3258 39.0572 63.0019 39.0568 62.6876C39.0533 60.9244 39.0537 59.1617 39.2641 57.4067C39.3017 57.0941 39.3238 56.778 39.3312 56.4632C39.3732 54.7009 39.4134 52.9386 39.4428 51.1759C39.4493 50.7758 39.4169 50.3744 39.3905 49.9743C39.3511 49.374 39.303 48.7736 39.2559 48.1737C39.2424 48.0023 39.2446 47.8249 39.1979 47.6621C38.9031 46.632 38.9555 45.557 38.7776 44.5122C38.7491 44.3451 38.7542 44.1677 38.7729 43.998C38.8032 43.7194 38.9334 43.5824 39.2152 43.5549C39.458 43.5312 39.7047 43.5501 39.9497 43.5488C40.5114 43.5454 41.0745 43.563 41.6346 43.5312C42.4206 43.4864 43.1572 43.6565 43.8532 43.9937C44.1669 44.1457 44.4604 44.2392 44.8014 44.113C44.8928 44.079 45.0005 44.0772 45.1005 44.0794C45.506 44.0867 45.7631 44.3107 45.7683 44.7129C45.7714 44.9812 45.7237 45.256 45.6597 45.5187C45.5346 46.0312 45.5043 46.5277 45.6809 47.0411C45.7566 47.2612 45.725 47.5196 45.732 47.7607C45.7393 48.0178 45.7155 48.2767 45.738 48.532C45.7956 49.1888 45.8761 49.8438 45.938 50.5002C45.9661 50.7978 46.0055 51.0967 45.8778 51.3904C45.835 51.4894 45.8458 51.6165 45.8493 51.7302C45.8683 52.3607 45.9263 52.992 45.9068 53.6212C45.8817 54.4477 46.0458 55.262 45.9722 56.0949C45.8809 57.1316 45.8999 58.1776 45.8506 59.2186C45.8363 59.5153 45.7125 59.8077 45.7025 60.104C45.6735 60.9916 45.6683 61.8805 45.6679 62.769C45.6666 64.0846 45.6909 65.4007 45.6753 66.7164C45.6701 67.1721 45.6004 67.6303 45.5221 68.0808C45.3598 69.0127 45.1706 69.9404 44.9958 70.8702C44.9252 71.2457 44.7556 71.5627 44.5136 71.8629C43.9588 72.5511 43.3204 73.1036 42.4374 73.331C42.2734 73.3732 42.1258 73.4774 41.9709 73.5541C41.6056 73.735 41.2225 73.8164 40.8122 73.8607C40.1124 73.9365 39.4177 74.0726 38.727 74.2147C37.7752 74.4107 36.8192 74.5084 35.8471 74.4559C35.6631 74.446 35.4766 74.4895 35.2909 74.4994C34.9178 74.5192 34.5443 74.5403 34.1708 74.5472C33.0901 74.567 32.0089 74.5795 30.9282 74.5959C30.8707 74.5967 30.8118 74.5989 30.756 74.6122C30.0258 74.7841 29.3013 74.7109 28.5685 74.6071C27.9271 74.5162 27.2762 74.4912 26.6296 74.4378C26.572 74.4331 26.514 74.4331 26.4569 74.4279C25.7384 74.3599 25.432 73.9994 25.4835 73.2849C25.5328 72.5993 25.6038 71.9141 25.6246 71.2276C25.6861 69.1803 25.7795 67.1316 25.7614 65.0846C25.7445 63.1936 25.6376 61.3008 25.5021 59.4136C25.3294 57.008 25.3528 54.5988 25.2697 52.1918C25.2242 50.8736 25.1706 49.5553 25.1394 48.2366C25.1095 46.9756 25.1126 45.7138 25.0866 44.4528C25.0433 42.3598 24.9927 40.2672 24.9382 38.1746C24.7819 32.1689 24.8213 26.1603 24.6902 20.1543C24.6733 19.3804 24.6283 18.6069 24.6105 17.833C24.5975 17.2602 24.6209 16.6861 24.604 16.1133C24.5655 14.7817 24.5166 13.4501 24.4642 12.1189C24.4378 11.4462 24.3941 10.7739 24.3578 10.1017C24.3409 9.78686 24.3491 9.46774 24.3002 9.15809C24.1916 8.47032 24.2335 7.78987 24.2985 7.10124C24.392 6.11114 24.5902 5.14861 24.9005 4.20459C25.0516 3.74507 25.3004 3.36393 25.6177 2.99657C26.2063 2.31612 26.9542 1.9212 27.7497 1.52629C29.0252 0.892347 30.3855 0.73214 31.7557 0.561597C32.456 0.474172 33.1641 0.443164 33.8618 0.338943C34.5703 0.23343 35.2641 0.257547 35.97 0.361337C37.0533 0.520683 38.144 0.634379 39.2308 0.770469C39.3727 0.788126 39.5251 0.796309 39.651 0.854879C40.0579 1.04394 40.4855 1.07495 40.9204 1.05126C41.4913 1.02025 42.0306 1.12706 42.5738 1.30622C42.9771 1.43929 43.4177 1.46298 43.8428 1.5293C44.112 1.57107 44.389 1.5784 44.6521 1.64256C44.9923 1.72568 45.0628 1.85617 45.0213 2.20932C45.0079 2.32258 44.9784 2.43456 44.9516 2.5461C44.7045 3.584 44.5885 4.63224 44.6227 5.70158C44.6391 6.21364 44.55 6.72828 44.5344 7.2425C44.5244 7.56851 44.495 7.91778 44.5933 8.21795C44.7508 8.69858 44.746 9.17188 44.733 9.66025C44.7028 10.8209 44.6461 11.9837 44.6815 13.143C44.7127 14.1581 44.856 15.1693 44.9473 16.1827C44.9624 16.3532 44.9919 16.5298 44.9659 16.696C44.8889 17.1896 44.9707 17.6646 45.0715 18.1443C45.1923 18.7193 45.2987 19.2981 45.3896 19.8786C45.4316 20.1456 45.432 20.4208 45.4329 20.6926C45.4338 21.2232 45.4446 21.755 45.4104 22.2835C45.3342 23.4682 45.6701 24.6147 45.7134 25.7873C45.7194 25.9583 45.7168 26.1297 45.7129 26.3007C45.6956 27.0328 45.7116 27.7607 45.957 28.4635C45.9852 28.5445 46.0129 28.6276 46.025 28.712C46.0748 29.0591 45.9077 29.2714 45.555 29.2831C45.3398 29.2899 45.1217 29.2714 44.9079 29.2421C44.3002 29.1595 43.7017 29.2241 43.0979 29.2973C42.7897 29.3343 42.4496 29.3528 42.1613 29.2624C41.4861 29.0496 40.7993 29.0427 40.1081 29.0277C40.0215 29.0259 39.9345 29.0294 39.8488 29.0212C39.3303 28.9704 39.1027 28.7111 39.1291 28.1969C39.2126 26.575 39.1182 24.9587 38.9464 23.3472C38.7607 21.6082 38.5495 19.8717 38.3526 18.134C38.3318 17.9493 38.3323 17.7619 38.3214 17.5759C38.2924 17.0896 38.2245 16.6133 38.1115 16.1344C37.9674 15.5233 37.8895 14.892 37.8393 14.2649C37.7198 12.7783 37.68 11.2886 37.7177 9.79548C37.7393 8.92295 37.6636 8.04827 37.6437 7.17445C37.6285 6.50089 37.6116 5.82604 37.6341 5.15291C37.6519 4.62492 37.7133 4.09649 37.7843 3.57237C37.8501 3.08874 37.7852 2.98064 37.2991 2.93025C36.749 2.8734 36.2072 2.91389 35.6662 3.03318C35.3299 3.10726 34.9858 3.15764 34.6426 3.18779C33.8696 3.25583 33.2095 3.59907 32.569 3.99529C32.5331 4.01768 32.4997 4.04912 32.4751 4.08314C31.9834 4.75541 31.4645 5.41131 31.1546 6.19555C30.9663 6.6723 30.8906 7.16153 30.9871 7.67144C31.0109 7.79762 31.036 7.92898 31.0252 8.05473C30.8945 9.57282 30.9576 11.0888 31.0356 12.6073C31.0801 13.4794 31.0321 14.3562 31.0291 15.2305C31.0239 16.5784 31.0269 17.926 31.013 19.274C31.0092 19.6448 30.9243 20.0164 30.939 20.3851C30.9568 20.8343 31.0589 21.2809 30.9269 21.7279C31.1334 22.1797 31.0671 22.6581 31.055 23.128C31.0018 25.1784 31.0182 27.2258 31.1407 29.2757C31.2312 30.7917 31.2069 32.3141 31.2333 33.8335C31.2359 33.9842 31.2338 34.1379 31.2338 34.3778ZM26.3201 66.8693C26.2851 66.8779 26.2496 66.887 26.2145 66.8956C26.1972 66.9331 26.1669 66.9697 26.1647 67.0076C26.1284 67.6501 26.0925 68.2931 26.0656 68.9361C26.06 69.073 26.0838 69.216 26.2721 69.272C26.3327 68.5937 26.3997 67.9395 26.4417 67.2836C26.45 67.1488 26.363 67.0076 26.3201 66.8693ZM44.7785 62.8469C44.8192 62.8478 44.8594 62.8482 44.9001 62.8491C44.9291 61.9528 44.9598 61.0562 44.9828 60.16C44.9845 60.0941 44.9295 60.0265 44.901 59.9597C44.7564 60.9305 44.7343 61.8883 44.7785 62.8469ZM26.2764 65.315C26.121 65.8047 26.1011 66.3956 26.234 66.8107C26.3028 66.632 26.3803 66.5239 26.3785 66.4171C26.3733 66.0747 26.4989 65.7173 26.2764 65.315ZM45.1633 52.5648C44.9797 53.1582 45.107 53.756 45.1304 54.3529C45.2667 53.7603 45.2667 53.1643 45.1633 52.5648ZM39.0555 68.8693C39.3147 68.5773 39.3147 68.5773 39.2805 68.2091C39.0832 68.4141 38.975 68.5898 39.0555 68.8693ZM44.3418 69.0287C44.3712 68.7961 44.3898 68.6505 44.4141 68.4593C44.0916 68.7431 44.0916 68.7431 44.3418 69.0287ZM43.9726 17.9316C43.9964 17.9282 44.0202 17.9251 44.044 17.9217C44.0354 17.8532 44.0263 17.7847 44.0176 17.7158C43.9925 17.7193 43.967 17.7227 43.9419 17.7262C43.9518 17.7951 43.9622 17.8631 43.9726 17.9316Z" fill="#515151"/>
<path d="M104.11 70.2288C104.16 71.274 104.179 72.3218 104.419 73.349C104.441 73.445 104.447 73.5497 104.437 73.6479C104.408 73.936 104.243 74.0854 103.954 74.0919C103.869 74.0936 103.777 74.0906 103.698 74.063C103.114 73.8593 102.539 73.9019 101.956 74.0798C101.536 74.2082 101.109 74.1939 100.674 74.1031C100.339 74.0329 99.9887 74.032 99.645 74.007C99.3295 73.9842 99.0092 73.995 98.698 73.9467C98.2224 73.8727 98.0449 73.684 98.0181 73.203C97.9969 72.8184 98.0389 72.4304 98.0462 72.0441C98.0532 71.6875 98.0622 71.3305 98.051 70.9743C97.9999 69.3554 97.9428 67.737 97.8869 66.1185C97.8748 65.7749 97.8406 65.4308 97.8458 65.0871C97.8679 63.6095 97.6879 62.1435 97.6039 60.6719C97.5156 59.1263 97.471 57.578 97.3961 56.0311C97.3433 54.9432 97.2724 53.8558 97.2087 52.7684C97.12 51.2516 97.0213 49.7352 96.9434 48.2175C96.8547 46.4854 96.7842 44.752 96.708 43.019C96.6993 42.8187 96.6907 42.6172 96.7015 42.4169C96.7915 40.7817 96.685 39.1499 96.6296 37.5168C96.6019 36.702 96.6812 35.8842 96.7037 35.0676C96.7114 34.7821 96.6933 34.4957 96.6889 34.2097C96.6863 34.0525 96.6677 33.8923 96.6911 33.7386C96.7617 33.2791 97.0637 33.0172 97.5281 33.0547C97.9579 33.0896 98.3851 33.1692 98.8101 33.2459C99.4061 33.3531 99.9991 33.4767 100.593 33.5909C100.692 33.6098 100.797 33.6413 100.892 33.624C101.646 33.4854 102.391 33.3187 102.977 32.77C103.481 32.298 103.987 31.8282 104.493 31.3592C104.989 30.9001 105.323 30.3393 105.572 29.7175C105.677 29.4552 105.835 29.2136 105.978 28.9673C106.301 28.4095 106.63 27.8553 106.953 27.2984C107.018 27.1873 107.062 27.0637 107.132 26.9556C107.73 26.0237 107.926 25.0026 107.841 23.9117C107.593 20.7372 107.486 17.5568 107.452 14.3733C107.444 13.6438 107.359 12.9151 107.346 12.1851C107.337 11.6567 107.391 11.127 107.415 10.5977C107.511 8.47794 107.607 6.35821 107.702 4.23848C107.717 3.89481 107.737 3.55071 107.741 3.20704C107.746 2.81298 107.674 2.73503 107.296 2.75613C106.648 2.79231 106.001 2.83968 105.355 2.8961C104.743 2.9495 104.173 3.15278 103.621 3.4073C103.187 3.60756 102.751 3.79102 102.258 3.77853C102.073 3.77379 101.938 3.85863 101.952 4.05674C102.012 4.84356 101.706 5.58215 101.653 6.35348C101.622 6.81084 101.575 7.26735 101.543 7.72514C101.519 8.07269 101.56 8.41248 101.704 8.73462C101.796 8.93876 101.778 9.13686 101.743 9.35909C101.575 10.4073 101.467 11.4629 101.589 12.5253C101.604 12.6601 101.664 12.8078 101.749 12.9138C101.971 13.192 102.01 13.5051 102.015 13.8432C102.031 15.161 102.035 16.4793 102.088 17.7958C102.128 18.7713 102.151 19.742 102.084 20.7179C102.042 21.3307 102.078 21.9496 102.086 22.5654C102.09 22.9522 102.124 23.3393 102.115 23.7256C102.105 24.1305 102.013 24.2015 101.619 24.1929C101.547 24.1912 101.473 24.1925 101.403 24.1787C100.679 24.0374 99.9662 24.1115 99.2598 24.2851C98.9486 24.3613 98.6599 24.3359 98.3903 24.1572C98.1852 24.0206 97.9631 23.9995 97.7272 24.0551C97.5307 24.1012 97.3343 24.1507 97.1352 24.1808C96.7504 24.2394 96.4847 24.0982 96.3479 23.7368C96.2782 23.5525 96.2371 23.3479 96.2306 23.1507C96.1912 21.9905 96.1665 20.8294 96.1345 19.6688C96.0878 17.9633 96.0406 16.2579 95.9895 14.5525C95.9843 14.3815 95.9467 14.2118 95.9333 14.0404C95.8999 13.6123 95.851 13.1847 95.8467 12.7562C95.8389 12.0124 95.88 11.2674 95.8636 10.524C95.8398 9.46115 95.8597 8.40301 96.0276 7.35089C96.0523 7.19629 96.057 7.03651 96.051 6.87975C95.9882 5.26088 95.9207 3.64244 95.8558 2.02357C95.851 1.90945 95.8458 1.7936 95.8592 1.68033C95.9043 1.2979 96.0921 1.05845 96.4743 1.0072C96.798 0.964137 97.1417 0.952509 97.4602 1.01366C98.1813 1.15148 98.8941 1.33322 99.6056 1.51582C99.8934 1.58989 100.175 1.62176 100.456 1.53046C100.947 1.37068 101.441 1.21392 101.919 1.02055C102.21 0.902982 102.494 0.859916 102.802 0.870252C103.16 0.88231 103.52 0.865945 103.878 0.848718C104.294 0.828477 104.711 0.803499 105.126 0.761724C105.409 0.7333 105.701 0.708322 105.968 0.619174C106.604 0.407718 107.248 0.276365 107.918 0.27292C108.956 0.267321 109.995 0.260861 111.033 0.251817C111.325 0.249233 111.604 0.281964 111.871 0.417623C111.994 0.479639 112.147 0.50634 112.287 0.506771C112.82 0.509355 113.352 0.504187 113.885 0.484807C114.478 0.463274 114.77 0.766031 114.649 1.3302C114.351 2.7122 114.293 4.11746 114.271 5.52057C114.248 7.09766 114.244 8.67174 114.081 10.245C113.993 11.0972 114.014 11.9625 114.02 12.8216C114.031 14.3117 114.065 15.8018 114.095 17.2919C114.115 18.2381 114.141 19.1838 114.173 20.1296C114.183 20.4009 114.231 20.6705 114.251 20.9418C114.288 21.4405 114.312 21.9401 114.35 22.4384C114.409 23.2385 114.483 24.0379 114.537 24.8385C114.647 26.4685 114.748 28.0995 114.853 29.73C114.914 30.6735 114.984 31.6171 115.034 32.5616C115.066 33.1624 115.056 33.7653 115.086 34.3661C115.142 35.4828 115.233 36.5978 115.274 37.7149C115.326 39.1473 115.354 40.5806 115.374 42.0138C115.402 44.0922 115.419 46.171 115.43 48.2498C115.433 48.7361 115.395 49.2227 115.376 49.7094C115.374 49.7524 115.358 49.7981 115.368 49.8377C115.529 50.479 115.358 51.1219 115.385 51.7632C115.394 51.9734 115.461 52.1805 115.5 52.3894C115.523 52.5147 115.563 52.6405 115.565 52.7666C115.591 54.7447 115.623 56.7232 115.629 58.7016C115.633 60.0776 115.584 61.454 115.584 62.8304C115.586 64.6366 115.615 66.4424 115.627 68.2486C115.629 68.5634 115.607 68.8783 115.596 69.1931C115.59 69.3791 115.569 69.566 115.578 69.7516C115.634 70.8666 115.692 71.982 115.757 73.0966C115.806 73.9386 115.647 74.094 114.801 74.0001C114.586 73.9765 114.37 73.9545 114.157 73.9149C113.826 73.8533 113.51 73.8572 113.181 73.9618C112.814 74.0781 112.43 74.0316 112.076 73.8912C111.607 73.7047 111.133 73.6651 110.634 73.7168C109.851 73.7982 109.512 73.5686 109.29 72.8249C109.117 72.2482 108.954 71.6677 108.81 71.0837C108.627 70.3412 108.285 69.6944 107.74 69.1504C107.486 68.8968 107.269 68.6061 107.012 68.3563C106.62 67.9773 106.222 67.6018 105.8 67.2577C105.442 66.9661 105.291 66.9885 104.908 67.2348C104.659 67.395 104.442 67.569 104.397 67.8894C104.386 67.9652 104.328 68.0664 104.264 68.0966C104.015 68.2133 104.012 68.4174 104.025 68.6409C104.056 69.1694 104.082 69.6991 104.11 70.2288ZM108.01 34.1094C107.938 34.3755 107.829 34.5801 107.561 34.6645C106.505 34.9961 105.479 35.4315 104.347 35.4849C103.802 35.5108 103.259 35.6077 102.716 35.6805C102.215 35.7476 102.176 35.8071 102.273 36.2855C102.291 36.3695 102.321 36.4561 102.314 36.5392C102.244 37.4216 102.474 38.2769 102.552 39.146C102.627 39.9837 102.849 40.8148 102.632 41.6615C102.622 41.7024 102.627 41.7472 102.626 41.7903C102.617 42.879 102.607 43.9682 102.6 45.0569C102.59 46.6021 102.621 48.1439 102.808 49.6831C102.939 50.7632 103.023 51.8532 103.046 52.9406C103.1 55.5216 103.217 58.0974 103.49 60.6659C103.614 61.8339 103.766 63.0018 103.675 64.1827C103.637 64.6724 103.652 64.7064 104.142 64.7555C105.492 64.8907 106.824 65.1013 108.138 65.4506C108.894 65.6517 108.949 65.5751 108.934 64.7835C108.906 63.336 108.867 61.889 108.829 60.4415C108.73 56.7163 108.615 52.991 108.534 49.2649C108.477 46.6564 108.465 44.0474 108.437 41.4384C108.424 40.2489 108.423 39.059 108.408 37.8695C108.392 36.565 108.366 35.2606 108.342 33.9561C108.338 33.7321 108.329 33.5082 108.219 33.3062C107.549 33.5276 107.521 33.6391 108.01 34.1094Z" fill="#515151"/>
<path d="M63.9806 45.9635C63.7002 45.7559 63.4123 45.7697 63.1258 45.7602C62.5792 45.7417 62.033 45.7154 61.4868 45.6857C60.6489 45.6401 60.0282 45.1737 59.4824 44.6056C59.0721 44.1784 59.0206 42.7792 59.3898 42.3196C59.5651 42.1013 59.8027 41.9187 60.0434 41.7693C61.0306 41.1556 62.1161 41.0427 63.2522 41.1625C63.7655 41.2167 64.2862 41.2004 64.8034 41.2206C64.9605 41.2266 65.1241 41.2258 65.273 41.2684C65.827 41.4269 66.3797 41.5923 66.9267 41.774C67.6344 42.0091 68.1927 42.4553 68.6203 43.0548C68.7419 43.2249 68.8116 43.4372 68.8791 43.6383C68.951 43.8528 68.9921 44.0776 69.0497 44.3115C69.2042 44.3033 69.328 44.2968 69.4591 44.2899C69.6218 44.5712 69.5418 44.8347 69.4595 45.0918C69.3829 45.3317 69.3652 45.5561 69.4548 45.8033C69.5985 46.1995 69.5188 46.4036 69.1782 46.6569C69.1094 46.7081 69.0354 46.7525 68.9276 46.824C69.0968 47.299 68.7917 47.6142 68.5074 47.9424C68.323 48.1552 68.1538 48.3813 67.978 48.6013C67.9953 48.625 68.0122 48.6487 68.0295 48.6728C68.1901 48.6513 68.3507 48.6298 68.5567 48.6022C68.1758 49.3571 67.579 49.6384 66.8436 49.6935C66.7437 49.7008 66.6298 49.6655 66.5446 49.7017C65.7547 50.0359 64.8934 49.9226 64.0776 50.097C63.7309 50.1711 63.3587 50.1573 63.0003 50.1392C62.3792 50.1082 61.7655 50.1181 61.1453 50.1896C60.7367 50.2366 60.3139 50.1595 59.8975 50.1341C59.3379 50.0996 58.7783 50.0324 58.2191 50.0316C57.3998 50.0303 56.6138 49.8851 55.8464 49.6134C55.5625 49.5126 55.2756 49.4192 54.9371 49.3042C54.9683 49.4411 54.9947 49.5294 55.0076 49.6194C55.0475 49.9019 55.1158 50.1857 55.1133 50.4683C55.0946 52.2749 55.0561 54.0811 55.0319 55.8873C55.002 58.0807 54.97 60.2745 54.957 62.4683C54.9458 64.3882 54.96 66.3085 54.9622 68.2289C54.9622 68.3723 54.9774 68.52 54.9475 68.6578C54.7891 69.3904 54.9098 70.1148 54.9973 70.84C55.0423 71.2112 55.0786 71.5743 54.9938 71.9498C54.9479 72.1522 54.9899 72.3766 55.0051 72.5902C55.0293 72.933 55.0899 73.2754 55.0886 73.6178C55.0873 74.1337 54.7774 74.3658 54.2615 74.2732C53.5647 74.1479 52.8826 74.1927 52.2225 74.4546C51.82 74.6143 51.4391 74.604 51.0609 74.3848C50.9648 74.3292 50.8475 74.278 50.7402 74.2784C50.3407 74.2797 49.9399 74.2905 49.5422 74.3245C49.3508 74.3409 49.2214 74.2918 49.176 74.1139C49.0951 73.7956 48.9951 73.4748 48.973 73.1501C48.9276 72.4791 48.9141 71.8047 48.912 71.132C48.9007 67.5902 48.8951 64.0484 48.8908 60.5062C48.8864 57.2512 48.9146 53.9958 48.873 50.7409C48.8471 48.7038 48.867 46.6707 48.9418 44.6349C48.9873 43.3899 48.9276 42.1409 48.912 40.8933C48.883 38.5419 48.8462 36.1904 48.8228 33.839C48.8081 32.3765 48.8401 30.9135 48.8012 29.4518C48.7514 27.5746 48.6514 25.6986 48.5727 23.8222C48.4766 21.5302 48.3939 19.2373 48.2792 16.9462C48.2113 15.5861 48.0607 14.2295 48.0065 12.8691C47.9382 11.1516 47.9421 9.43151 47.8914 7.71316C47.8533 6.42504 48.0239 5.13391 47.8395 3.84881C47.7949 3.53873 47.7443 3.22563 47.6521 2.92718C47.5205 2.50212 47.5543 2.10892 47.7724 1.72563C47.9282 1.45173 48.1585 1.30056 48.4805 1.32554C48.9548 1.36215 49.4283 1.40866 49.9022 1.4513C49.9308 1.45388 49.9646 1.45043 49.9871 1.46422C50.7293 1.89876 51.5197 1.70625 52.2636 1.55078C53.833 1.22304 55.4188 1.22434 57.0012 1.22477C58.4952 1.2252 59.9897 1.27214 61.4803 1.46981C62.4796 1.60246 63.4786 1.72951 64.4757 1.8811C65.0267 1.96465 65.5989 1.89919 66.1607 1.9246C67.025 1.96422 67.8884 2.02193 68.7523 2.07748C68.9099 2.08739 69.0674 2.11538 69.2224 2.14811C69.579 2.22348 69.8023 2.42029 69.8833 2.7954C69.93 3.01202 70.0256 3.23898 70.1628 3.41168C70.4654 3.79196 70.5333 4.20583 70.4641 4.66621C70.2745 5.93064 69.9975 7.17526 69.6262 8.39921C69.5595 8.61842 69.4907 8.83935 69.4517 9.06416C69.4232 9.23039 69.3946 9.42161 69.4491 9.57234C69.5578 9.87337 69.5271 10.1589 69.4742 10.4582C69.4448 10.6245 69.4115 10.8195 69.4704 10.9655C69.5902 11.2623 69.5595 11.5465 69.5309 11.8475C69.5054 12.1163 69.5227 12.3923 69.5487 12.6624C69.6677 13.8945 69.7257 15.1227 69.4128 16.3389C69.3656 16.5215 69.3686 16.6934 69.4578 16.8786C69.7188 17.4203 69.8015 18.0009 69.7508 18.5973C69.6971 19.2274 69.6417 19.8558 69.8045 20.4789C69.8118 20.5065 69.8166 20.5358 69.8157 20.5642C69.7725 21.9242 70.0334 23.2795 69.8594 24.6439C69.8036 25.0801 69.856 25.531 69.8659 25.9751C69.8824 26.7059 69.9084 27.4363 69.9244 28.1667C69.9529 29.4703 69.9815 30.774 70.001 32.0776C70.0131 32.8933 70.0127 33.7089 70.0088 34.5246C70.007 34.9437 70.0287 35.3476 70.2265 35.7374C70.3901 36.0599 70.2801 36.2878 69.9356 36.4131C69.7764 36.4708 69.5993 36.4979 69.4288 36.5031C68.7363 36.5242 68.0494 36.566 67.3682 36.7197C67.0207 36.7981 66.6506 36.8015 66.2914 36.7981C64.7056 36.7813 63.1193 36.7572 61.534 36.7189C60.9306 36.7042 60.3567 36.805 59.8032 37.0328C59.5153 37.1512 59.2734 37.3235 59.1583 37.6306C59.1336 37.6969 59.1046 37.7766 59.0518 37.8149C58.4666 38.2382 58.1624 38.9307 57.527 39.3244C57.1678 39.547 56.8761 39.9131 56.8782 40.4196C56.8791 40.6241 56.7848 40.8386 56.6969 41.032C56.4099 41.6633 56.3892 42.2861 56.6025 42.9536C57.0648 44.3989 57.9516 45.5707 58.9475 46.675C59.3223 47.0906 59.7408 47.4683 60.152 47.8494C60.3191 48.0044 60.5104 48.1397 60.7077 48.2546C60.9852 48.4161 61.2994 48.4484 61.5785 48.2878C62.5597 47.721 63.4751 47.0802 63.9806 45.9635ZM54.5973 6.16492C54.5761 6.16578 54.5545 6.16621 54.5333 6.16707C54.5333 6.51118 54.5411 6.85528 54.5303 7.19852C54.5242 7.38327 54.4844 7.56673 54.4632 7.75106C54.4424 7.93366 54.4121 8.11669 54.4099 8.30016C54.403 8.91601 54.4112 9.53186 54.4047 10.1477C54.3996 10.6344 54.3757 11.1206 54.371 11.6072C54.368 11.9225 54.3918 12.2377 54.3896 12.553C54.3745 14.6034 54.3814 16.6529 54.5294 18.7003C54.6203 19.9583 54.7146 21.2171 54.7592 22.4772C54.786 23.2343 54.7211 23.9944 54.6973 24.7528C54.6476 26.3334 54.8125 27.9019 54.9509 29.4725C55.0085 30.1275 55.0392 30.7856 55.0678 31.4428C55.0812 31.7554 55.0994 32.075 54.8605 32.3403C54.8125 32.3937 54.8159 32.5035 54.815 32.5879C54.8064 33.3894 54.7921 34.1909 54.7999 34.9923C54.8064 35.6702 54.8618 35.6999 55.5331 35.5853C57.3227 35.2804 59.1011 34.8954 60.9337 34.9139C61.3331 34.9182 61.7356 34.8282 62.1334 34.7619C62.4675 34.7059 62.5506 34.6168 62.571 34.2804C62.6138 33.5655 62.6766 32.8489 62.6649 32.1344C62.6285 29.9126 62.5814 27.6908 62.4991 25.4703C62.4251 23.4656 62.3134 21.4621 62.1897 19.46C62.1304 18.503 62.0005 17.5508 61.9101 16.5956C61.875 16.2248 61.8547 15.8523 61.8369 15.4802C61.7923 14.5495 61.724 13.6193 61.7188 12.6882C61.7127 11.6292 61.7543 10.5689 61.7988 9.51032C61.8127 9.18388 61.9226 8.8626 61.9564 8.5353C62.0745 7.39447 62.181 6.25235 62.2853 5.11022C62.3139 4.7967 62.3403 4.48059 62.3295 4.16664C62.3186 3.85699 62.1832 3.73726 61.8707 3.70195C61.7279 3.68601 61.5829 3.69075 61.4387 3.69118C60.7177 3.69377 59.9962 3.68774 59.2751 3.70367C58.3277 3.72477 57.3716 3.55638 56.4338 3.82038C56.4069 3.8277 56.3758 3.82598 56.3476 3.8221C55.8607 3.75148 55.4032 3.89489 54.9445 4.01806C54.5259 4.13046 54.4718 4.22521 54.503 4.66448C54.5385 5.16449 54.5662 5.66449 54.5973 6.16492Z" fill="#515151"/>
<path d="M0.928172 64.7686C1.18916 65.2329 1.02469 65.6851 0.890951 66.1381C0.733409 65.6769 0.717828 65.2195 0.928172 64.7686Z" fill="#515151"/>
<path d="M0.922218 63.6262C1.11438 63.8584 1.11915 64.041 0.966797 64.2395C0.736544 63.982 0.736544 63.982 0.922218 63.6262Z" fill="#515151"/>
<path d="M33.9172 32.7042C33.7809 32.8868 33.6653 32.9411 33.5463 32.786C33.5173 32.7485 33.5247 32.6361 33.5589 32.6056C33.7147 32.4639 33.7926 32.6129 33.9172 32.7042Z" fill="#515151"/>
<path d="M45.2285 37.5552C45.341 37.4316 45.4068 37.3588 45.477 37.2822C45.5176 37.3252 45.551 37.3446 45.5501 37.3618C45.5414 37.4996 45.4917 37.5974 45.2285 37.5552Z" fill="#515151"/>
</g>
<path d="M30.1846 90.7333V80.834H32.9518C33.7631 80.834 34.4906 81.0199 35.1343 81.3915C35.7779 81.7587 36.2788 82.2867 36.6368 82.9757C36.9995 83.6647 37.1808 84.4488 37.1808 85.3281V86.2392C37.1808 87.1231 37.0017 87.9072 36.6436 88.5917C36.2856 89.2761 35.7802 89.8041 35.1275 90.1758C34.4793 90.5475 33.7337 90.7333 32.8906 90.7333H30.1846ZM31.0209 81.5479V90.0262H32.8974C33.9399 90.0262 34.7762 89.6818 35.4062 88.9928C36.0363 88.2993 36.3513 87.3633 36.3513 86.1848V85.3145C36.3513 84.1768 36.0408 83.2658 35.4198 82.5814C34.7989 81.8969 33.9807 81.5524 32.9654 81.5479H31.0209ZM51.6365 85.9876H47.0064V90.0262H52.33V90.7333H46.1701V80.834H52.296V81.5479H47.0064V85.2805H51.6365V85.9876ZM66.5614 88.2993C66.5614 87.7508 66.3687 87.318 65.9835 87.0007C65.5982 86.6789 64.8933 86.3752 63.869 86.0896C62.8446 85.7995 62.0967 85.4845 61.6253 85.1446C60.9545 84.6641 60.619 84.0341 60.619 83.2545C60.619 82.4975 60.9295 81.8833 61.5505 81.4119C62.176 80.936 62.9738 80.698 63.9438 80.698C64.601 80.698 65.188 80.8249 65.7047 81.0788C66.2259 81.3326 66.6294 81.6862 66.9149 82.1394C67.2005 82.5927 67.3432 83.0981 67.3432 83.6556H66.5002C66.5002 82.9802 66.269 82.4386 65.8067 82.0306C65.3443 81.6182 64.7234 81.4119 63.9438 81.4119C63.1868 81.4119 62.584 81.5819 62.1352 81.9218C61.6865 82.2573 61.4621 82.6969 61.4621 83.2409C61.4621 83.744 61.6638 84.1542 62.0672 84.4715C62.4706 84.7888 63.1165 85.0698 64.0049 85.3145C64.8933 85.5548 65.5664 85.8063 66.0242 86.0692C66.482 86.3276 66.8265 86.6381 67.0577 87.0007C67.2889 87.3633 67.4044 87.7916 67.4044 88.2857C67.4044 89.0653 67.0917 89.6908 66.4662 90.1622C65.8452 90.6336 65.0248 90.8693 64.0049 90.8693C63.3069 90.8693 62.6655 90.7447 62.0808 90.4954C61.5007 90.2461 61.0587 89.8971 60.755 89.4483C60.4559 88.9996 60.3063 88.4851 60.3063 87.905H61.1426C61.1426 88.603 61.4032 89.1537 61.9245 89.5571C62.4457 89.9605 63.1392 90.1622 64.0049 90.1622C64.7755 90.1622 65.3942 89.9922 65.8611 89.6523C66.3279 89.3123 66.5614 88.8613 66.5614 88.2993ZM77.0941 90.7333H76.2578V80.834H77.0941V90.7333ZM93.7935 89.5571C93.5034 89.9696 93.0479 90.2914 92.4269 90.5226C91.8104 90.7537 91.1192 90.8693 90.3532 90.8693C89.5781 90.8693 88.8891 90.6835 88.2863 90.3118C87.6835 89.9401 87.2166 89.4143 86.8857 88.7344C86.5548 88.0545 86.3871 87.2749 86.3826 86.3956V85.1446C86.3826 83.7712 86.7293 82.6879 87.4228 81.8947C88.1163 81.0969 89.0478 80.698 90.2172 80.698C91.2371 80.698 92.0575 80.9587 92.6785 81.4799C93.2994 81.9966 93.6688 82.7105 93.7867 83.6216H92.9504C92.828 82.8964 92.5311 82.3479 92.0597 81.9762C91.5929 81.6 90.981 81.4119 90.224 81.4119C89.2994 81.4119 88.5673 81.7405 88.0279 82.3978C87.4886 83.055 87.2189 83.9819 87.2189 85.1786V86.348C87.2189 87.1004 87.3458 87.7667 87.5996 88.3469C87.858 88.9225 88.2251 89.369 88.701 89.6863C89.1815 90.0036 89.7322 90.1622 90.3532 90.1622C91.0739 90.1622 91.6926 90.0489 92.2093 89.8223C92.5447 89.6727 92.794 89.4982 92.9572 89.2988V86.7423H90.2988V86.0352H93.7935V89.5571ZM110.398 90.7333H109.561L103.871 82.2618V90.7333H103.028V80.834H103.871L109.568 89.3123V80.834H110.398V90.7333Z" fill="#515151"/>
</g>
<defs>
<clipPath id="clip0">
<rect width="139.394" height="92" fill="white"/>
</clipPath>
<clipPath id="clip1">
<rect width="139.394" height="74.7152" fill="white"/>
</clipPath>
</defs>
</svg>
