<svg width="16" height="16" viewBox="0 0 16 16" fill="none" xmlns="http://www.w3.org/2000/svg">
<path fill-rule="evenodd" clip-rule="evenodd" d="M0 8C0 3.58172 3.58172 0 8 0C12.4183 0 16 3.58172 16 8C16 12.4183 12.4183 16 8 16C3.58172 16 0 12.4183 0 8ZM9.18609 6.22329H11.4459V5.57587H9.18609V6.22329ZM11.2467 6.76678C10.9747 6.6465 10.6692 6.58611 10.3295 6.58611C9.75806 6.58611 9.29396 6.7648 8.93523 7.11969C8.5775 7.47558 8.39838 7.98688 8.39838 8.65361C8.39838 9.36439 8.59606 9.87817 8.99393 10.1935C9.38979 10.5093 9.84787 10.6667 10.3672 10.6667C10.9958 10.6667 11.485 10.4796 11.8342 10.1059C12.058 9.87026 12.1844 9.63811 12.212 9.41043H11.1709C11.1107 9.52328 11.0405 9.61138 10.9607 9.67524C10.8157 9.79254 10.6265 9.85145 10.3953 9.85145C10.1755 9.85145 9.98835 9.80294 9.83282 9.70642C9.57593 9.55149 9.44147 9.28074 9.42441 8.89516H12.2657C12.2702 8.56303 12.2592 8.30763 12.2316 8.13142C12.1844 7.82998 12.0811 7.56467 11.92 7.33599C11.7434 7.07663 11.5191 6.88656 11.2467 6.76678ZM7.6483 5.8877C7.37988 5.52736 6.92481 5.34274 6.2816 5.33333H3.73333V10.5355H6.10951C6.37743 10.5355 6.62528 10.5127 6.85457 10.4657C7.08386 10.4182 7.28204 10.3316 7.45012 10.2044C7.59964 10.0935 7.72406 9.95688 7.8234 9.79502C7.98044 9.5505 8.05871 9.27381 8.05871 8.96544C8.05871 8.66648 7.98998 8.41206 7.85351 8.20319C7.71553 7.99381 7.51284 7.84087 7.24391 7.74385C7.42102 7.65476 7.55498 7.55576 7.6463 7.44786C7.80936 7.25482 7.89013 6.99892 7.89013 6.68164C7.89013 6.37327 7.80936 6.10896 7.6483 5.8877Z" fill="white"/>
<path fill-rule="evenodd" clip-rule="evenodd" d="M4.78467 6.23666H5.93262C6.18499 6.23666 6.3927 6.26389 6.55626 6.31784C6.74491 6.39605 6.83924 6.55592 6.83924 6.79895C6.83924 7.01674 6.76749 7.16919 6.625 7.25532C6.48151 7.34144 6.29537 7.38451 6.06708 7.38451H4.78467V6.23666ZM9.72165 7.63595C9.86565 7.48944 10.0694 7.41618 10.3302 7.41618C10.5711 7.41618 10.7723 7.48499 10.9358 7.62308C11.0974 7.76217 11.1887 7.96412 11.2073 8.23141H9.44972C9.48685 7.98095 9.57766 7.78246 9.72165 7.63595ZM4.78467 8.24526H6.08314C6.30891 8.24724 6.48502 8.27694 6.61045 8.33337C6.83472 8.43484 6.9461 8.62045 6.9461 8.8917C6.9461 9.21145 6.83071 9.42726 6.59941 9.5411C6.47247 9.60199 6.29386 9.63267 6.06507 9.63267H4.78467V8.24526Z" fill="white"/>
</svg>
