<svg width="16" height="16" viewBox="0 0 16 16" fill="none" xmlns="http://www.w3.org/2000/svg">
<path fill-rule="evenodd" clip-rule="evenodd" d="M8 0C3.58238 0 0 3.58238 0 8C0 12.4206 3.58238 16 8 16C12.4176 16 16 12.4206 16 8C16 3.58238 12.4176 0 8 0ZM7.67145 11.6071H6.35428V8.92529C6.35428 8.39386 6.33053 8.05641 6.28006 7.91291C6.22959 7.76843 6.14151 7.65562 6.01583 7.5715C5.88916 7.48639 5.73083 7.44384 5.54082 7.44384C5.32212 7.44384 5.12717 7.49926 4.95596 7.60713C4.78278 7.71598 4.6571 7.87927 4.57892 8.09797C4.49876 8.31668 4.45819 8.6383 4.46017 9.06482L4.45918 11.6071H3.14201V4.39287H4.45918V7.17763C4.88273 6.67194 5.39139 6.41761 5.98021 6.41761C6.28402 6.41761 6.55616 6.47501 6.7996 6.5908C7.04404 6.7046 7.22712 6.85205 7.34983 7.03018C7.47452 7.2093 7.55765 7.40623 7.60317 7.62296C7.64869 7.83869 7.67145 8.17516 7.67145 8.63038V11.6071ZM12.858 11.6071H11.5418V8.92529C11.5418 8.39386 11.5171 8.05641 11.4666 7.91291C11.4161 7.76843 11.329 7.65562 11.2014 7.5715C11.0757 7.48639 10.9164 7.44384 10.7264 7.44384C10.5077 7.44384 10.3127 7.49926 10.1415 7.60713C9.96932 7.71598 9.84463 7.87927 9.76447 8.09797C9.6853 8.31668 9.64572 8.6383 9.64572 9.06482V11.6071H8.32954V4.39287H9.64572V7.17763C10.0693 6.67194 10.5779 6.41761 11.1667 6.41761C11.4686 6.41761 11.7427 6.47501 11.9871 6.5908C12.2306 6.7046 12.4137 6.85205 12.5364 7.03018C12.6601 7.2093 12.7442 7.40623 12.7897 7.62296C12.8352 7.83869 12.857 8.17516 12.857 8.63038V11.6071H12.858Z" fill="#6C6C6C"/>
</svg>
